<svg width="215" height="83" viewBox="0 0 215 83" fill="none" xmlns="http://www.w3.org/2000/svg">
<path d="M37.9645 4.94975C39.9171 2.99713 43.0829 2.99713 45.0355 4.94975L78.0502 37.9645C80.0029 39.9171 80.0029 43.0829 78.0503 45.0355L45.0355 78.0502C43.0829 80.0029 39.9171 80.0029 37.9645 78.0503L4.94975 45.0355C2.99713 43.0829 2.99713 39.9171 4.94975 37.9645L37.9645 4.94975Z" stroke="#00FFF0" stroke-width="2"/>
<path d="M29.456 33.92V38.464H36.784V42.688H29.456V47.616H37.744V52H23.984V29.536H37.744V33.92H29.456ZM56.3365 38.496V43.04H42.2565V38.496H56.3365ZM67.891 47.776H75.059V52H62.419V29.536H67.891V47.776ZM95.781 42.784C95.781 43.296 95.749 43.8293 95.685 44.384H83.301C83.3863 45.4933 83.7383 46.3467 84.357 46.944C84.997 47.52 85.7757 47.808 86.693 47.808C88.0583 47.808 89.0077 47.232 89.541 46.08H95.365C95.0663 47.2533 94.5223 48.3093 93.733 49.248C92.965 50.1867 91.9943 50.9227 90.821 51.456C89.6477 51.9893 88.3357 52.256 86.885 52.256C85.1357 52.256 83.5783 51.8827 82.213 51.136C80.8477 50.3893 79.781 49.3227 79.013 47.936C78.245 46.5493 77.861 44.928 77.861 43.072C77.861 41.216 78.2343 39.5947 78.981 38.208C79.749 36.8213 80.8157 35.7547 82.181 35.008C83.5463 34.2613 85.1143 33.888 86.885 33.888C88.613 33.888 90.149 34.2507 91.493 34.976C92.837 35.7013 93.8823 36.736 94.629 38.08C95.397 39.424 95.781 40.992 95.781 42.784ZM90.181 41.344C90.181 40.4053 89.861 39.6587 89.221 39.104C88.581 38.5493 87.781 38.272 86.821 38.272C85.9037 38.272 85.125 38.5387 84.485 39.072C83.8663 39.6053 83.4823 40.3627 83.333 41.344H90.181ZM98.8598 43.04C98.8598 41.2053 99.2011 39.5947 99.8838 38.208C100.588 36.8213 101.537 35.7547 102.732 35.008C103.926 34.2613 105.26 33.888 106.732 33.888C107.99 33.888 109.089 34.144 110.028 34.656C110.988 35.168 111.724 35.84 112.236 36.672V34.144H117.708V52H112.236V49.472C111.702 50.304 110.956 50.976 109.996 51.488C109.057 52 107.958 52.256 106.7 52.256C105.249 52.256 103.926 51.8827 102.732 51.136C101.537 50.368 100.588 49.2907 99.8838 47.904C99.2011 46.496 98.8598 44.8747 98.8598 43.04ZM112.236 43.072C112.236 41.7067 111.852 40.6293 111.084 39.84C110.337 39.0507 109.42 38.656 108.332 38.656C107.244 38.656 106.316 39.0507 105.548 39.84C104.801 40.608 104.428 41.6747 104.428 43.04C104.428 44.4053 104.801 45.4933 105.548 46.304C106.316 47.0933 107.244 47.488 108.332 47.488C109.42 47.488 110.337 47.0933 111.084 46.304C111.852 45.5147 112.236 44.4373 112.236 43.072ZM128.419 37.12C129.059 36.1387 129.859 35.3707 130.819 34.816C131.779 34.24 132.845 33.952 134.019 33.952V39.744H132.515C131.149 39.744 130.125 40.0427 129.443 40.64C128.76 41.216 128.419 42.24 128.419 43.712V52H122.947V34.144H128.419V37.12ZM148.794 33.952C150.885 33.952 152.549 34.6347 153.786 36C155.045 37.344 155.674 39.2 155.674 41.568V52H150.234V42.304C150.234 41.1093 149.925 40.1813 149.306 39.52C148.687 38.8587 147.855 38.528 146.81 38.528C145.765 38.528 144.933 38.8587 144.314 39.52C143.695 40.1813 143.386 41.1093 143.386 42.304V52H137.914V34.144H143.386V36.512C143.941 35.7227 144.687 35.104 145.626 34.656C146.565 34.1867 147.621 33.952 148.794 33.952ZM163.509 32.288C162.549 32.288 161.759 32.0107 161.141 31.456C160.543 30.88 160.245 30.176 160.245 29.344C160.245 28.4907 160.543 27.7867 161.141 27.232C161.759 26.656 162.549 26.368 163.509 26.368C164.447 26.368 165.215 26.656 165.813 27.232C166.431 27.7867 166.741 28.4907 166.741 29.344C166.741 30.176 166.431 30.88 165.813 31.456C165.215 32.0107 164.447 32.288 163.509 32.288ZM166.229 34.144V52H160.757V34.144H166.229ZM182.354 33.952C184.445 33.952 186.109 34.6347 187.346 36C188.605 37.344 189.234 39.2 189.234 41.568V52H183.794V42.304C183.794 41.1093 183.485 40.1813 182.866 39.52C182.247 38.8587 181.415 38.528 180.37 38.528C179.325 38.528 178.493 38.8587 177.874 39.52C177.255 40.1813 176.946 41.1093 176.946 42.304V52H171.474V34.144H176.946V36.512C177.501 35.7227 178.247 35.104 179.186 34.656C180.125 34.1867 181.181 33.952 182.354 33.952ZM201.101 33.888C202.359 33.888 203.458 34.144 204.397 34.656C205.357 35.168 206.093 35.84 206.605 36.672V34.144H212.077V51.968C212.077 53.6107 211.746 55.0933 211.085 56.416C210.445 57.76 209.453 58.8267 208.109 59.616C206.786 60.4053 205.133 60.8 203.149 60.8C200.503 60.8 198.359 60.1707 196.717 58.912C195.074 57.6747 194.135 55.9893 193.901 53.856H199.309C199.479 54.5387 199.885 55.072 200.525 55.456C201.165 55.8613 201.954 56.064 202.893 56.064C204.023 56.064 204.919 55.7333 205.581 55.072C206.263 54.432 206.605 53.3973 206.605 51.968V49.44C206.071 50.272 205.335 50.9547 204.397 51.488C203.458 52 202.359 52.256 201.101 52.256C199.629 52.256 198.295 51.8827 197.101 51.136C195.906 50.368 194.957 49.2907 194.253 47.904C193.57 46.496 193.229 44.8747 193.229 43.04C193.229 41.2053 193.57 39.5947 194.253 38.208C194.957 36.8213 195.906 35.7547 197.101 35.008C198.295 34.2613 199.629 33.888 201.101 33.888ZM206.605 43.072C206.605 41.7067 206.221 40.6293 205.453 39.84C204.706 39.0507 203.789 38.656 202.701 38.656C201.613 38.656 200.685 39.0507 199.917 39.84C199.17 40.608 198.797 41.6747 198.797 43.04C198.797 44.4053 199.17 45.4933 199.917 46.304C200.685 47.0933 201.613 47.488 202.701 47.488C203.789 47.488 204.706 47.0933 205.453 46.304C206.221 45.5147 206.605 44.4373 206.605 43.072Z" fill="white"/>
</svg>
