<svg width="1200" height="92" viewBox="0 0 1200 92" fill="none" xmlns="http://www.w3.org/2000/svg">
<path fill-rule="evenodd" clip-rule="evenodd" d="M0 72.0037L50 78.004C100 84.0043 200 96.005 300 90.0047C400 84.0044 500 60.0031 600 48.0025C700 36.0019 800 36.0019 900 30.0016C1000 24.0012 1100 12.0006 1150 6.00031L1200 0H1150C1100 0 1000 0 900 0C800 0 700 0 600 0C500 0 400 0 300 0C200 0 100 0 50 0H0V72.0037Z" fill="url(#paint0_linear_64_1432)"/>
<path d="M12.9519 50.6051L49.65 28.2756H52.7076L62.2139 22.4902" stroke="url(#paint1_linear_64_1432)" stroke-width="3" stroke-miterlimit="10"/>
<path d="M62.0975 22.5598C61.7269 22.3343 61.7269 21.9696 62.0975 21.7453C62.468 21.5198 63.0675 21.5198 63.4361 21.7453C63.8067 21.9707 63.8067 22.3355 63.4361 22.5598C63.0675 22.7853 62.468 22.7853 62.0975 22.5598Z" stroke="#0DF1F9" stroke-width="2" stroke-miterlimit="10"/>
<path d="M9.9292 58.6279L53.6445 32.0287V30.5342L57.6682 28.0859" stroke="url(#paint2_linear_64_1432)" stroke-width="3" stroke-miterlimit="10"/>
<path d="M58.2173 28.3279C58.7401 28.3279 59.164 28.07 59.164 27.7518C59.164 27.4337 58.7401 27.1758 58.2173 27.1758C57.6944 27.1758 57.2705 27.4337 57.2705 27.7518C57.2705 28.07 57.6944 28.3279 58.2173 28.3279Z" stroke="#0DF1F9" stroke-width="2" stroke-miterlimit="10"/>
<g opacity="0.5">
<path d="M72.1763 54.932C72.0297 54.9245 71.923 54.8519 71.9347 54.769C71.9464 54.686 72.0747 54.6257 72.2213 54.6323C72.3679 54.6389 72.4762 54.7115 72.4645 54.7935C72.4512 54.8764 72.3229 54.9386 72.1763 54.932Z" fill="#9FCFFF"/>
<path d="M58.8804 49.1488C58.6655 49.1384 58.5072 49.0319 58.5222 48.9104C58.5406 48.7897 58.7305 48.6993 58.9471 48.7087C59.1587 48.719 59.3186 48.8255 59.302 48.9462C59.2853 49.0687 59.0954 49.1592 58.8804 49.1488Z" fill="#9FCFFF"/>
<path d="M46.9377 52.7256C46.7561 52.7162 46.6212 52.6276 46.6361 52.5239C46.6511 52.4212 46.8094 52.3449 46.991 52.3543C47.1726 52.3628 47.3076 52.4523 47.2926 52.555C47.2776 52.6578 47.1177 52.7341 46.9377 52.7256Z" fill="#9FCFFF"/>
<path d="M47.0194 52.0873C46.8194 52.0778 46.6711 51.9779 46.6878 51.8649C46.7061 51.7518 46.8794 51.6679 47.081 51.6764C47.2809 51.6867 47.4309 51.7857 47.4142 51.8988C47.3959 52.0119 47.2193 52.0967 47.0194 52.0873Z" fill="#9FCFFF"/>
<path d="M45.7798 52.1081C45.6148 52.0996 45.4898 52.0176 45.5032 51.9215C45.5182 51.8272 45.6648 51.7575 45.8297 51.7641C45.998 51.7726 46.1246 51.8565 46.108 51.9507C46.098 52.0459 45.9497 52.1156 45.7798 52.1081Z" fill="#9FCFFF"/>
<path d="M13.4302 39.2764C13.2503 39.2689 13.1153 39.1784 13.132 39.0757C13.1453 38.9739 13.3036 38.8966 13.4852 38.9061C13.6668 38.9145 13.7985 39.0041 13.7851 39.1058C13.7701 39.2095 13.6085 39.2858 13.4302 39.2764Z" fill="#9FCFFF"/>
<path d="M69.8952 46.1356C69.7685 46.129 69.6719 46.0668 69.6836 45.9943C69.6936 45.9217 69.8052 45.868 69.9352 45.8746C70.0618 45.8812 70.1568 45.9434 70.1451 46.0159C70.1351 46.0885 70.0235 46.1413 69.8952 46.1356Z" fill="#9FCFFF"/>
<path d="M81.7184 55.8717C81.5768 55.8651 81.4685 55.7944 81.4818 55.7134C81.4918 55.6323 81.6185 55.572 81.7617 55.5786C81.9067 55.5852 82.0117 55.6568 82 55.7379C81.9867 55.8189 81.8617 55.8792 81.7184 55.8717Z" fill="#9FCFFF"/>
<path d="M80.8537 47.2782C80.6471 47.2678 80.4921 47.1651 80.5088 47.0463C80.5255 46.9285 80.7104 46.8409 80.9187 46.8503C81.1269 46.8588 81.2819 46.9634 81.2652 47.0812C81.2469 47.199 81.0653 47.2876 80.8537 47.2782Z" fill="#9FCFFF"/>
<path d="M75.9819 57.4663C75.7953 57.4578 75.657 57.3645 75.672 57.2599C75.6887 57.1553 75.8503 57.0771 76.0386 57.0856C76.2252 57.0941 76.3618 57.1864 76.3451 57.292C76.3301 57.3966 76.1652 57.4748 75.9819 57.4663Z" fill="#9FCFFF"/>
<path d="M77.5131 55.6646C77.2998 55.6542 77.1415 55.5477 77.1582 55.4262C77.1765 55.3055 77.3631 55.2151 77.5781 55.2254C77.7913 55.2358 77.9513 55.3423 77.9346 55.4629C77.9146 55.5854 77.728 55.674 77.5131 55.6646Z" fill="#9FCFFF"/>
<path d="M73.969 51.547C73.7858 51.5385 73.6541 51.449 73.6691 51.3472C73.6841 51.2454 73.8441 51.1691 74.024 51.1785C74.204 51.187 74.3389 51.2765 74.3239 51.3783C74.3073 51.4801 74.149 51.5564 73.969 51.547Z" fill="#9FCFFF"/>
<path d="M81.8517 48.3701C81.6735 48.3616 81.5418 48.273 81.5568 48.1722C81.5718 48.0713 81.7268 47.9969 81.9067 48.0044C82.085 48.0129 82.2166 48.1015 82.2016 48.2023C82.1883 48.3032 82.03 48.3776 81.8517 48.3701Z" fill="#9FCFFF"/>
<path d="M69.3838 43.6997C69.2472 43.694 69.1489 43.6271 69.1589 43.5508C69.1706 43.4744 69.2889 43.417 69.4255 43.4245C69.5588 43.4311 69.6587 43.4971 69.6487 43.5734C69.6371 43.6507 69.5155 43.7072 69.3838 43.6997Z" fill="#9FCFFF"/>
<path d="M82.6579 51.6321C82.4546 51.6226 82.3047 51.5218 82.3213 51.4059C82.338 51.2909 82.5163 51.2052 82.7195 51.2146C82.9228 51.224 83.0744 51.3258 83.0578 51.4417C83.0394 51.5557 82.8628 51.6415 82.6579 51.6321Z" fill="#9FCFFF"/>
<path d="M70.5702 45.9612C70.4236 45.9546 70.3136 45.8811 70.3253 45.7972C70.337 45.7133 70.4669 45.6511 70.6152 45.6577C70.7635 45.6643 70.8735 45.7378 70.8601 45.8217C70.8501 45.9056 70.7202 45.9687 70.5702 45.9612Z" fill="#9FCFFF"/>
<path d="M80.4486 58.0308C80.2353 58.0204 80.0754 57.9139 80.0937 57.7933C80.112 57.6717 80.3003 57.5813 80.5136 57.5916C80.7285 57.602 80.8885 57.7085 80.8701 57.8301C80.8535 57.9507 80.6652 58.0402 80.4486 58.0308Z" fill="#9FCFFF"/>
<path d="M77.333 57.8726C77.348 57.7756 77.498 57.7039 77.6696 57.7115C77.8412 57.72 77.9695 57.8048 77.9545 57.9018" fill="#9FCFFF"/>
<path d="M101.862 38.5902C101.67 38.5808 101.529 38.4856 101.542 38.3782C101.559 38.2698 101.727 38.1888 101.92 38.1991C102.112 38.2076 102.253 38.3028 102.237 38.4112C102.22 38.5186 102.052 38.5997 101.862 38.5902Z" fill="#9FCFFF"/>
<path d="M101.095 37.6791C100.904 37.6697 100.762 37.5745 100.777 37.4671C100.792 37.3587 100.96 37.2776 101.154 37.288C101.345 37.2965 101.487 37.3917 101.47 37.5C101.455 37.6065 101.287 37.6876 101.095 37.6791Z" fill="#9FCFFF"/>
<path d="M105.019 45.2719C104.861 45.2644 104.743 45.1852 104.754 45.0957C104.768 45.0052 104.909 44.9374 105.069 44.9449C105.228 44.9534 105.346 45.0326 105.334 45.1221C105.321 45.2126 105.179 45.2804 105.019 45.2719Z" fill="#9FCFFF"/>
<path d="M101.922 35.1026C101.755 35.0941 101.634 35.013 101.647 34.9188C101.662 34.8264 101.807 34.7567 101.97 34.7642C102.135 34.7718 102.258 34.8538 102.245 34.948C102.23 35.0413 102.085 35.1101 101.922 35.1026Z" fill="#9FCFFF"/>
<path d="M94.8208 54.5484C94.6108 54.538 94.4509 54.4334 94.4692 54.3128C94.4859 54.1931 94.6741 54.1036 94.8857 54.113C95.099 54.1234 95.2556 54.228 95.2373 54.3486C95.2206 54.4692 95.0357 54.5578 94.8208 54.5484Z" fill="#9FCFFF"/>
<path d="M88.0365 43.0672C87.8532 43.0578 87.7166 42.9673 87.7316 42.8627C87.7466 42.7581 87.9082 42.6808 88.0931 42.6902C88.2781 42.6987 88.4147 42.7901 88.398 42.8947C88.3814 42.9984 88.2214 43.0757 88.0365 43.0672Z" fill="#9FCFFF"/>
<path d="M81.7797 36.8385C81.5831 36.8291 81.4348 36.7302 81.4515 36.619C81.4681 36.5068 81.6414 36.4229 81.8413 36.4324C82.0396 36.4427 82.1879 36.5407 82.1712 36.6529C82.1546 36.765 81.9796 36.848 81.7797 36.8385Z" fill="#9FCFFF"/>
<path d="M76.3916 31.7731C76.22 31.7646 76.0933 31.6788 76.1067 31.5818C76.1217 31.4837 76.2733 31.4121 76.4449 31.4206C76.6182 31.4291 76.7448 31.5148 76.7315 31.611C76.7165 31.7099 76.5665 31.7815 76.3916 31.7731Z" fill="#9FCFFF"/>
<path d="M77.6462 32.9389C77.433 32.9276 77.2763 32.823 77.2947 32.7014C77.313 32.5818 77.4996 32.4922 77.7129 32.5017C77.9245 32.5111 78.0844 32.6176 78.0678 32.7373C78.0478 32.8579 77.8612 32.9484 77.6462 32.9389Z" fill="#9FCFFF"/>
<path d="M75.1905 31.8616C75.0705 31.856 74.9822 31.7957 74.9905 31.7288C75.0005 31.66 75.1072 31.61 75.2271 31.6157C75.3454 31.6204 75.4354 31.6807 75.4237 31.7485C75.4154 31.8164 75.3104 31.8664 75.1905 31.8616Z" fill="#9FCFFF"/>
<path d="M76.5264 32.9565C76.3798 32.9489 76.2731 32.8764 76.2848 32.7944C76.2965 32.7124 76.4248 32.6511 76.5714 32.6577C76.7163 32.6653 76.8246 32.7369 76.813 32.8198C76.8013 32.9018 76.673 32.9631 76.5264 32.9565Z" fill="#9FCFFF"/>
<path d="M92.5832 54.9074C92.3916 54.898 92.2483 54.8028 92.265 54.6945C92.2817 54.587 92.4499 54.506 92.6415 54.5154C92.8315 54.5248 92.9748 54.62 92.9581 54.7284C92.9414 54.8349 92.7732 54.9159 92.5832 54.9074Z" fill="#9FCFFF"/>
<path d="M70.2487 37.4823C70.0387 37.4729 69.8838 37.3693 69.9021 37.2515C69.9188 37.1327 70.1037 37.0432 70.312 37.0536C70.5202 37.0639 70.6769 37.1685 70.6619 37.2863C70.6435 37.4041 70.4586 37.4918 70.2487 37.4823Z" fill="#9FCFFF"/>
<path d="M80.7171 38.2773C80.6054 38.2726 80.5238 38.217 80.5338 38.1557C80.5421 38.0926 80.6404 38.0464 80.7504 38.0511C80.8637 38.0558 80.9453 38.1114 80.9353 38.1727C80.9253 38.2358 80.8287 38.2829 80.7171 38.2773Z" fill="#9FCFFF"/>
<path d="M98.1482 48.4807C97.9866 48.4732 97.8649 48.3931 97.8799 48.3017C97.8916 48.2103 98.0349 48.1415 98.1982 48.149C98.3598 48.1565 98.4814 48.2376 98.4664 48.329C98.4531 48.4204 98.3098 48.4883 98.1482 48.4807Z" fill="#9FCFFF"/>
<path d="M64.9636 23.2439C64.8069 23.2373 64.6903 23.16 64.702 23.0714C64.7153 22.9828 64.8519 22.9169 65.0102 22.9244C65.1652 22.932 65.2818 23.0092 65.2701 23.0978C65.2568 23.1855 65.1185 23.2524 64.9636 23.2439Z" fill="#9FCFFF"/>
<path d="M79.0625 34.6908C78.8759 34.6823 78.7376 34.5881 78.7526 34.4826C78.7676 34.3779 78.9325 34.2988 79.1175 34.3073C79.3057 34.3157 79.4457 34.409 79.4274 34.5146C79.4124 34.6201 79.2508 34.6993 79.0625 34.6908Z" fill="#9FCFFF"/>
<path d="M77.9128 33.6882C77.7545 33.6807 77.6362 33.6025 77.6512 33.5129C77.6645 33.4234 77.8011 33.3565 77.9594 33.365C78.1177 33.3725 78.236 33.4498 78.2227 33.5403C78.2077 33.6289 78.0711 33.6958 77.9128 33.6882Z" fill="#9FCFFF"/>
<path d="M68.841 26.8287C68.6677 26.8202 68.5394 26.7354 68.5544 26.6374C68.5694 26.5394 68.721 26.4678 68.8926 26.4763C69.0643 26.4838 69.1925 26.5696 69.1776 26.6666C69.1609 26.7646 69.0126 26.8363 68.841 26.8287Z" fill="#9FCFFF"/>
<path d="M90.3239 37.0501C90.134 37.0407 89.9907 36.9445 90.0057 36.8362C90.024 36.7278 90.1923 36.6458 90.3839 36.6562C90.5772 36.6646 90.7188 36.7617 90.7022 36.8691C90.6872 36.9775 90.5189 37.0595 90.3239 37.0501Z" fill="#9FCFFF"/>
<path d="M25.5128 44.461C25.3478 44.4535 25.2262 44.3715 25.2395 44.2791C25.2529 44.1868 25.3961 44.117 25.5611 44.1246C25.7244 44.1321 25.8477 44.2141 25.8343 44.3065C25.8193 44.3988 25.6761 44.4686 25.5128 44.461Z" fill="#9FCFFF"/>
<path d="M33.3687 40.9339C33.1804 40.9254 33.0388 40.8312 33.0538 40.7238C33.0705 40.6154 33.2371 40.5353 33.4254 40.5447C33.6186 40.5532 33.7569 40.6474 33.7436 40.7549C33.7269 40.8632 33.5587 40.9424 33.3687 40.9339Z" fill="#9FCFFF"/>
<path d="M85.9771 46.6677C85.8521 46.6611 85.7588 46.5989 85.7671 46.5282C85.7788 46.4575 85.8887 46.4048 86.0137 46.4095C86.1387 46.4161 86.2336 46.4783 86.222 46.549C86.212 46.6206 86.102 46.6733 85.9771 46.6677Z" fill="#9FCFFF"/>
<path d="M82.6682 42.1903C82.4883 42.1827 82.3533 42.0923 82.3683 41.9895C82.385 41.8859 82.5449 41.8095 82.7249 41.818C82.9082 41.8275 83.0414 41.9179 83.0265 42.0197C83.0098 42.1224 82.8498 42.1988 82.6682 42.1903Z" fill="#9FCFFF"/>
<path d="M75.5086 45.2092C75.3587 45.2017 75.2487 45.1272 75.2604 45.0434C75.272 44.9586 75.4037 44.8954 75.5536 44.903C75.7036 44.9096 75.8152 44.984 75.8019 45.0688C75.7885 45.1536 75.6586 45.2158 75.5086 45.2092Z" fill="#9FCFFF"/>
<path d="M106.767 50.1469C106.621 50.1403 106.512 50.0668 106.524 49.9838C106.536 49.9009 106.666 49.8406 106.812 49.8472C106.959 49.8538 107.066 49.9263 107.054 50.0093C107.042 50.0913 106.914 50.1535 106.767 50.1469Z" fill="#9FCFFF"/>
<path d="M106.786 51.3286C106.667 51.323 106.581 51.2646 106.591 51.1986C106.601 51.1317 106.704 51.0827 106.821 51.0883C106.939 51.094 107.025 51.1524 107.015 51.2184C107.005 51.2853 106.901 51.3343 106.786 51.3286Z" fill="#9FCFFF"/>
<path d="M60.2268 57.3539C60.2435 57.2361 60.4284 57.1485 60.6367 57.1579C60.8466 57.1673 61.0032 57.2719 60.9849 57.3898" fill="#9FCFFF"/>
<path d="M21.9541 32.2517C21.7991 32.2451 21.6808 32.1669 21.6941 32.0783C21.7075 31.9897 21.8458 31.9237 22.0024 31.9313C22.159 31.9388 22.2756 32.0161 22.2623 32.1047C22.249 32.1942 22.1123 32.2602 21.9541 32.2517Z" fill="#9FCFFF"/>
<path d="M13.5985 29.0124C13.4402 29.0039 13.3219 28.9257 13.3353 28.8362C13.3502 28.7467 13.4869 28.6797 13.6468 28.6882C13.8051 28.6948 13.9217 28.774 13.9084 28.8635C13.8951 28.953 13.7568 29.019 13.5985 29.0124Z" fill="#9FCFFF"/>
<path d="M38.1473 39.5955C37.9524 39.5871 37.8091 39.49 37.8241 39.3797C37.8407 39.2695 38.0123 39.1884 38.2073 39.1969C38.4022 39.2054 38.5455 39.3024 38.5305 39.4127C38.5139 39.523 38.3422 39.6059 38.1473 39.5955Z" fill="#9FCFFF"/>
<path d="M29.0203 35.6906C28.8437 35.6831 28.7154 35.5954 28.7287 35.4955C28.7437 35.3975 28.897 35.3231 29.072 35.3306C29.2452 35.3391 29.3752 35.4258 29.3619 35.5266C29.3485 35.6256 29.1953 35.6991 29.0203 35.6906Z" fill="#9FCFFF"/>
<path d="M63.2725 57.0715C63.0925 57.063 62.9626 56.9753 62.9792 56.8745C62.9926 56.7746 63.1492 56.6992 63.3274 56.7077C63.5057 56.7162 63.6373 56.8048 63.6223 56.9046C63.6074 57.0055 63.4491 57.0799 63.2725 57.0715Z" fill="#9FCFFF"/>
<path d="M34.6862 44.524C34.5696 44.5184 34.483 44.4609 34.493 44.3949C34.503 44.3289 34.6063 44.2799 34.7229 44.2856C34.8395 44.2913 34.9262 44.3487 34.9162 44.4157C34.9062 44.4807 34.8029 44.5297 34.6862 44.524Z" fill="#9FCFFF"/>
<path d="M35.3947 44.079C35.2664 44.0734 35.1681 44.0093 35.1814 43.9367C35.1914 43.8632 35.3047 43.8076 35.433 43.8151C35.5629 43.8208 35.6612 43.8858 35.6479 43.9584C35.6379 44.0309 35.5246 44.0856 35.3947 44.079Z" fill="#9FCFFF"/>
<path d="M91.9834 37.9491C91.7868 37.9397 91.6419 37.8416 91.6585 37.7314C91.6752 37.6202 91.8468 37.5382 92.0434 37.5476C92.24 37.5561 92.3866 37.655 92.3683 37.7653C92.3516 37.8756 92.18 37.9576 91.9834 37.9491Z" fill="#9FCFFF"/>
<path d="M93.9395 50.1188C93.7546 50.1103 93.6163 50.018 93.633 49.9124C93.6463 49.8078 93.8112 49.7286 93.9962 49.7381C94.1811 49.7475 94.3211 49.8398 94.3061 49.9445C94.2894 50.0491 94.1261 50.1273 93.9395 50.1188Z" fill="#9FCFFF"/>
<path d="M53.1338 46.7514C52.9322 46.7429 52.7822 46.6421 52.7989 46.528C52.8139 46.414 52.9905 46.3292 53.1937 46.3386C53.3953 46.348 53.5453 46.4489 53.5286 46.5629C53.512 46.6769 53.337 46.7617 53.1338 46.7514Z" fill="#9FCFFF"/>
<path d="M68.8942 48.261C68.7626 48.2544 68.6643 48.1885 68.6743 48.114C68.6859 48.0386 68.8026 47.983 68.9359 47.9887C69.0675 47.9953 69.1641 48.0612 69.1541 48.1357C69.1441 48.212 69.0258 48.2676 68.8942 48.261Z" fill="#9FCFFF"/>
<path d="M69.334 49.2909C69.1224 49.2815 68.9675 49.1768 68.9841 49.0581C69.0008 48.9384 69.1874 48.8498 69.3973 48.8602C69.6073 48.8696 69.7656 48.9742 69.7472 49.0939C69.7289 49.2127 69.5456 49.3022 69.334 49.2909Z" fill="#9FCFFF"/>
<path d="M72.8277 33.1126C72.7045 33.107 72.6128 33.0457 72.6228 32.9769C72.6328 32.9081 72.7428 32.8563 72.8627 32.8629C72.986 32.8685 73.0793 32.9288 73.0677 32.9986C73.056 33.0664 72.9494 33.1183 72.8277 33.1126Z" fill="#9FCFFF"/>
<path d="M94.4561 41.0127C94.2762 41.0051 94.1412 40.9146 94.1579 40.8119C94.1712 40.7101 94.3312 40.6347 94.5111 40.6432C94.6927 40.6517 94.826 40.7422 94.811 40.843C94.796 40.9467 94.6377 41.0221 94.4561 41.0127Z" fill="#9FCFFF"/>
<path d="M93.7647 48.1877C93.6131 48.1811 93.5014 48.1057 93.5148 48.0209C93.5281 47.9361 93.6597 47.873 93.8097 47.8805C93.9579 47.8871 94.0712 47.9615 94.0596 48.0473C94.0479 48.1321 93.9146 48.1943 93.7647 48.1877Z" fill="#9FCFFF"/>
<path d="M58.8139 52.8135C58.6623 52.806 58.5507 52.7315 58.5624 52.6467C58.5774 52.5619 58.709 52.4988 58.8606 52.5054C59.0089 52.5129 59.1222 52.5873 59.1089 52.6731C59.0955 52.757 58.9639 52.8211 58.8139 52.8135Z" fill="#9FCFFF"/>
<path d="M73.6424 32.9526C73.4275 32.9422 73.2675 32.8357 73.2859 32.7132C73.3042 32.5917 73.4925 32.5012 73.7074 32.5116C73.9223 32.5219 74.0823 32.6294 74.0639 32.75C74.0489 32.8725 73.859 32.963 73.6424 32.9526Z" fill="#9FCFFF"/>
<path d="M14.3729 54.0921C14.2362 54.0845 14.1329 54.0176 14.1479 53.9403C14.1563 53.8631 14.2762 53.8046 14.4145 53.8122C14.5495 53.8178 14.6528 53.8866 14.6428 53.9639C14.6294 54.0402 14.5095 54.0977 14.3729 54.0921Z" fill="#9FCFFF"/>
<path d="M97.0652 44.1648C96.9236 44.1582 96.8203 44.0884 96.8303 44.0093C96.8419 43.931 96.9669 43.8717 97.1068 43.8773C97.2468 43.8839 97.3518 43.9537 97.3418 44.0328C97.3301 44.1129 97.2068 44.1723 97.0652 44.1648Z" fill="#9FCFFF"/>
<path d="M86.7065 41.9605C86.5332 41.952 86.4049 41.8672 86.4199 41.7682C86.4349 41.6702 86.5865 41.5977 86.7598 41.6061C86.9347 41.6146 87.0614 41.6994 87.048 41.7984C87.033 41.8964 86.8814 41.969 86.7065 41.9605Z" fill="#9FCFFF"/>
<path d="M90.6304 44.0211C90.5021 44.0154 90.4038 43.9504 90.4138 43.8778C90.4271 43.8034 90.5404 43.7496 90.6704 43.7553C90.7987 43.7619 90.897 43.826 90.8853 43.8995C90.877 43.973 90.762 44.0286 90.6304 44.0211Z" fill="#9FCFFF"/>
<path d="M54.7717 24.0147C54.5901 24.0053 54.4535 23.9148 54.4701 23.813C54.4851 23.7103 54.6451 23.6339 54.825 23.6434C55.0066 23.6509 55.1416 23.7423 55.1266 23.8441C55.1116 23.9468 54.9533 24.0222 54.7717 24.0147Z" fill="#9FCFFF"/>
<path d="M85.7568 48.2946C85.5585 48.2852 85.4119 48.1872 85.4285 48.075C85.4452 47.9629 85.6185 47.879 85.8167 47.8884C86.015 47.8988 86.1616 47.9968 86.145 48.108C86.1283 48.2201 85.955 48.304 85.7568 48.2946Z" fill="#9FCFFF"/>
<path d="M38.8799 10.4424C38.7566 10.4367 38.6617 10.3745 38.6733 10.3048C38.685 10.235 38.7916 10.1823 38.9166 10.1879C39.0416 10.1945 39.1332 10.2558 39.1232 10.3255C39.1132 10.3962 39.0032 10.4471 38.8799 10.4424Z" fill="#9FCFFF"/>
<path d="M51.4347 56.2273C51.2431 56.2169 51.0964 56.1208 51.1131 56.0106C51.1281 55.8993 51.2997 55.8183 51.4963 55.8268C51.6913 55.8362 51.8362 55.9333 51.8195 56.0435C51.8029 56.1538 51.6313 56.2358 51.4347 56.2273Z" fill="#9FCFFF"/>
<path d="M67.2896 57.4267C67.3062 57.3165 67.4778 57.2345 67.6728 57.2439C67.8694 57.2524 68.0143 57.3504 67.996 57.4607" fill="#9FCFFF"/>
<path d="M52.8889 56.4802C52.9006 56.4048 53.0155 56.3492 53.1505 56.3549C53.2821 56.3605 53.3821 56.4265 53.3704 56.5019" fill="#9FCFFF"/>
<path d="M65.197 56.6569C65.0804 56.6513 64.9937 56.5938 65.0037 56.5269C65.0137 56.4609 65.117 56.411 65.2336 56.4176C65.3519 56.4232 65.4386 56.4817 65.4286 56.5476C65.4186 56.6136 65.3153 56.6626 65.197 56.6569Z" fill="#9FCFFF"/>
<path d="M76.638 56.149C76.4963 56.1424 76.393 56.0718 76.4047 55.9916C76.4164 55.9125 76.5397 55.8531 76.683 55.8588C76.8229 55.8654 76.9279 55.936 76.9179 56.0152C76.9046 56.0972 76.7813 56.1566 76.638 56.149Z" fill="#9FCFFF"/>
<path d="M46.1081 55.5096C45.9948 55.5039 45.9132 55.4474 45.9215 55.3852C45.9298 55.3211 46.0281 55.2749 46.1414 55.2796C46.253 55.2843 46.3364 55.3409 46.328 55.404C46.318 55.4672 46.2197 55.5143 46.1081 55.5096Z" fill="#9FCFFF"/>
<path d="M73.6123 57.5662C73.6256 57.4729 73.7723 57.4032 73.9372 57.4107C74.1021 57.4192 74.2254 57.5012 74.2121 57.5945" fill="#9FCFFF"/>
<path d="M69.802 57.0672C69.817 56.957 69.9886 56.8759 70.1835 56.8844C70.3768 56.8948 70.5218 56.9909 70.5051 57.1012" fill="#9FCFFF"/>
<path d="M68.6855 57.1006C68.7005 57.0101 68.8405 56.9432 68.9988 56.9508C69.1587 56.9574 69.277 57.0375 69.2637 57.1279" fill="#9FCFFF"/>
<path d="M65.0303 53.1573C64.8786 53.1498 64.767 53.0744 64.7787 52.9887C64.792 52.9029 64.9236 52.8398 65.0752 52.8473C65.2269 52.8548 65.3402 52.9293 65.3268 53.015C65.3152 53.1008 65.1819 53.1649 65.0303 53.1573Z" fill="#9FCFFF"/>
<path d="M87.1313 51.0524C86.9614 51.0458 86.8397 50.962 86.853 50.8668C86.8664 50.7716 87.0147 50.7018 87.1813 50.7084C87.3479 50.7169 87.4745 50.7999 87.4595 50.8941C87.4445 50.9893 87.2996 51.06 87.1313 51.0524Z" fill="#9FCFFF"/>
<path d="M56.3897 53.6422C56.2647 53.6356 56.1714 53.5725 56.1814 53.5018C56.1931 53.4302 56.303 53.3774 56.4297 53.3821C56.5563 53.3878 56.6496 53.4519 56.6396 53.5226C56.6279 53.5942 56.518 53.6469 56.3897 53.6422Z" fill="#9FCFFF"/>
<path d="M33.2455 48.972C33.1239 48.9664 33.0323 48.9061 33.0423 48.8363C33.0522 48.7675 33.1589 48.7166 33.2805 48.7232C33.4021 48.7279 33.4904 48.7892 33.4821 48.858C33.4721 48.9268 33.3655 48.9786 33.2455 48.972Z" fill="#9FCFFF"/>
<path d="M66.5014 54.0729C66.3465 54.0654 66.2282 53.9872 66.2415 53.8995C66.2548 53.81 66.3915 53.744 66.5497 53.7516C66.7064 53.7591 66.823 53.8373 66.8097 53.9259C66.798 54.0145 66.6597 54.0795 66.5014 54.0729Z" fill="#9FCFFF"/>
<path d="M70.2004 57.2999C70.2171 57.1915 70.382 57.1114 70.5753 57.1209C70.7669 57.1303 70.9085 57.2245 70.8919 57.3329" fill="#9FCFFF"/>
<path d="M59.6303 55.8403C59.4987 55.8347 59.4004 55.7678 59.4121 55.6933C59.4221 55.6189 59.5404 55.5633 59.672 55.5699C59.8019 55.5765 59.9019 55.6415 59.8903 55.7169C59.8786 55.7913 59.7636 55.8469 59.6303 55.8403Z" fill="#9FCFFF"/>
<path d="M74.1844 47.3448C74.0212 47.3373 73.8979 47.2553 73.9129 47.1629C73.9262 47.0696 74.0695 47.0008 74.2344 47.0084C74.3977 47.0159 74.521 47.0979 74.506 47.1903C74.4927 47.2826 74.3494 47.3524 74.1844 47.3448Z" fill="#9FCFFF"/>
<path d="M66.7648 57.3112C66.5516 57.3008 66.395 57.1953 66.4116 57.0756C66.4299 56.9559 66.6166 56.8654 66.8281 56.8758C67.0414 56.8852 67.1997 56.9908 67.1814 57.1114C67.1647 57.2311 66.9764 57.3216 66.7648 57.3112Z" fill="#9FCFFF"/>
<path d="M67.8361 54.7312C67.6511 54.7236 67.5162 54.6322 67.5312 54.5276C67.5462 54.4239 67.7061 54.3466 67.8911 54.3551C68.076 54.3636 68.2109 54.455 68.196 54.5587C68.1776 54.6633 68.0177 54.7406 67.8361 54.7312Z" fill="#9FCFFF"/>
<path d="M74.0342 55.5587C73.8443 55.5503 73.701 55.4551 73.7176 55.3476C73.7343 55.2402 73.9009 55.1601 74.0925 55.1686C74.2824 55.178 74.4241 55.2723 74.4074 55.3806C74.3924 55.4871 74.2241 55.5672 74.0342 55.5587Z" fill="#9FCFFF"/>
<path d="M55.0568 56.0861C54.8802 56.0776 54.7469 55.99 54.7619 55.8891C54.7769 55.7883 54.9318 55.7139 55.1101 55.7223C55.2884 55.7308 55.42 55.8194 55.4034 55.9193C55.3884 56.0192 55.2334 56.0936 55.0568 56.0861Z" fill="#9FCFFF"/>
<path d="M63.5574 54.6622C63.3525 54.6528 63.1992 54.551 63.2158 54.4351C63.2325 54.3192 63.4124 54.2325 63.619 54.2419C63.824 54.2523 63.9773 54.3541 63.9589 54.47C63.9423 54.5859 63.7623 54.6707 63.5574 54.6622Z" fill="#9FCFFF"/>
<path d="M48.0256 56.6074C48.0356 56.516 48.1806 56.4481 48.3422 56.4557C48.5055 56.4632 48.6238 56.5442 48.6121 56.6357" fill="#9FCFFF"/>
<path d="M76.4718 53.7621C76.3118 53.7546 76.1935 53.6754 76.2068 53.5849C76.2202 53.4945 76.3601 53.4266 76.5201 53.4342C76.6817 53.4408 76.7966 53.5209 76.7866 53.6113C76.7733 53.7018 76.6317 53.7687 76.4718 53.7621Z" fill="#9FCFFF"/>
<path d="M80.2172 57.4409C80.0822 57.4352 79.9856 57.3693 79.9956 57.2939C80.0072 57.2194 80.1239 57.1629 80.2555 57.1695C80.3871 57.1761 80.4838 57.242 80.4754 57.3165C80.4654 57.3909 80.3505 57.4475 80.2172 57.4409Z" fill="#9FCFFF"/>
<path d="M86.2336 57.7309C86.242 57.6687 86.3369 57.6226 86.4486 57.6273C86.5585 57.6329 86.6368 57.6867 86.6285 57.7489" fill="#9FCFFF"/>
<path d="M100.706 41.0995C100.554 41.092 100.441 41.0166 100.452 40.9308C100.464 40.8441 100.601 40.781 100.751 40.7876C100.904 40.7942 101.017 40.8705 101.004 40.9563C100.992 41.043 100.859 41.1071 100.706 41.0995Z" fill="#9FCFFF"/>
<path d="M101.687 51.6191C101.494 51.6107 101.352 51.5145 101.369 51.4062C101.385 51.2978 101.554 51.2167 101.745 51.2252C101.937 51.2346 102.08 51.3298 102.064 51.4391C102.047 51.5466 101.877 51.6286 101.687 51.6191Z" fill="#9FCFFF"/>
<path d="M60.4847 52.2218C60.3365 52.2152 60.2265 52.1416 60.2382 52.0578C60.2498 51.973 60.3798 51.9117 60.5297 51.9174C60.678 51.9249 60.788 51.9993 60.7763 52.0823C60.7647 52.1671 60.633 52.2293 60.4847 52.2218Z" fill="#9FCFFF"/>
<path d="M68.8407 42.1452C68.6574 42.1358 68.5208 42.0444 68.5358 41.9417C68.5508 41.8371 68.7124 41.7607 68.8957 41.7692C69.079 41.7786 69.2156 41.8682 69.1989 41.9728C69.1839 42.0755 69.0223 42.1528 68.8407 42.1452Z" fill="#9FCFFF"/>
<path d="M49.7019 50.2512C49.497 50.2409 49.3437 50.1391 49.3604 50.0232C49.377 49.9073 49.5586 49.8206 49.7636 49.8309C49.9668 49.8403 50.1201 49.9421 50.1035 50.058C50.0851 50.1749 49.9069 50.2607 49.7019 50.2512Z" fill="#9FCFFF"/>
<path d="M90.9506 51.9033C90.8123 51.8967 90.709 51.8279 90.7206 51.7487C90.7323 51.6705 90.8539 51.6121 90.9922 51.6187C91.1305 51.6253 91.2338 51.6941 91.2221 51.7732C91.2121 51.8524 91.0888 51.9108 90.9506 51.9033Z" fill="#9FCFFF"/>
<path d="M62.6557 43.4419C62.5241 43.4353 62.4275 43.3693 62.4375 43.2949C62.4491 43.2195 62.5658 43.1648 62.6957 43.1714C62.829 43.1771 62.9273 43.2421 62.9157 43.3175C62.904 43.392 62.789 43.4485 62.6557 43.4419Z" fill="#9FCFFF"/>
<path d="M98.2698 54.0364C98.0765 54.0279 97.9366 53.9318 97.9532 53.8243C97.9666 53.716 98.1365 53.6359 98.3265 53.6453C98.5164 53.6547 98.658 53.749 98.6414 53.8573C98.6264 53.9648 98.4598 54.0458 98.2698 54.0364Z" fill="#9FCFFF"/>
<path d="M56.0749 21.9219C55.9383 21.9162 55.835 21.8484 55.8483 21.7702C55.86 21.6929 55.9799 21.6363 56.1166 21.642C56.2515 21.6476 56.3548 21.7174 56.3432 21.7937C56.3315 21.871 56.2099 21.9275 56.0749 21.9219Z" fill="#9FCFFF"/>
<path d="M44.8517 53.429C44.7334 53.4243 44.6468 53.3649 44.6568 53.298C44.6668 53.2302 44.7701 53.1811 44.89 53.1859C45.0083 53.1906 45.0966 53.2499 45.0867 53.3178C45.0767 53.3847 44.9734 53.4347 44.8517 53.429Z" fill="#9FCFFF"/>
<path d="M16.8889 42.2376C16.7673 42.2329 16.6773 42.1716 16.689 42.1038C16.699 42.0359 16.8056 41.985 16.9256 41.9907C17.0472 41.9963 17.1372 42.0566 17.1255 42.1245C17.1155 42.1923 17.0089 42.2442 16.8889 42.2376Z" fill="#9FCFFF"/>
<path d="M24.9583 54.5101C24.8084 54.5025 24.6984 54.429 24.7101 54.3442C24.7234 54.2603 24.8534 54.1972 25.0017 54.2047C25.1516 54.2113 25.2616 54.2848 25.2482 54.3696C25.2366 54.4554 25.1066 54.5176 24.9583 54.5101Z" fill="#9FCFFF"/>
<path d="M19.4783 54.7998C19.3534 54.7941 19.2617 54.7328 19.2717 54.6622C19.2834 54.5915 19.39 54.5387 19.5167 54.5444C19.64 54.55 19.7316 54.6122 19.7233 54.6829C19.7116 54.7536 19.6016 54.8064 19.4783 54.7998Z" fill="#9FCFFF"/>
<path d="M23.5669 51.7503C23.3903 51.7418 23.2586 51.6542 23.2736 51.5552C23.2886 51.4544 23.4436 51.3809 23.6202 51.3893C23.7968 51.3978 23.9268 51.4855 23.9118 51.5844C23.8984 51.6843 23.7435 51.7578 23.5669 51.7503Z" fill="#9FCFFF"/>
<path d="M16.6905 53.4838C16.5038 53.4754 16.3656 53.3821 16.3822 53.2765C16.3955 53.171 16.5605 53.0927 16.7454 53.1012C16.932 53.1097 17.0687 53.203 17.0537 53.3076C17.0387 53.4141 16.8754 53.4923 16.6905 53.4838Z" fill="#9FCFFF"/>
<path d="M36.291 56.0748C36.306 55.9815 36.4526 55.9118 36.6192 55.9184C36.7825 55.9269 36.9058 56.0089 36.8925 56.1022" fill="#9FCFFF"/>
<path d="M19.2583 46.4544C19.1366 46.4478 19.045 46.3875 19.0567 46.3187C19.0667 46.2499 19.1733 46.1981 19.2949 46.2047C19.4166 46.2103 19.5082 46.2706 19.4965 46.3394C19.4865 46.4073 19.3799 46.4591 19.2583 46.4544Z" fill="#9FCFFF"/>
<path d="M0.727615 46.2061C0.57433 46.1985 0.459366 46.1222 0.471029 46.0336C0.482692 45.9469 0.619316 45.8809 0.7726 45.8894C0.929217 45.896 1.04251 45.9733 1.03085 46.0609C1.01752 46.1486 0.882565 46.2127 0.727615 46.2061Z" fill="#9FCFFF"/>
<path d="M9.24632 47.6257C9.11803 47.62 9.02472 47.555 9.03638 47.4843C9.04638 47.4118 9.15801 47.358 9.28631 47.3637C9.41127 47.3703 9.5079 47.4344 9.49624 47.5051C9.48458 47.5776 9.37461 47.6304 9.24632 47.6257Z" fill="#9FCFFF"/>
<path d="M81.638 39.0881C81.4747 39.0796 81.3514 38.9976 81.3648 38.9053C81.3798 38.812 81.523 38.7422 81.688 38.7507C81.8529 38.7582 81.9746 38.8402 81.9612 38.9326C81.9496 39.0268 81.8046 39.0966 81.638 39.0881Z" fill="#9FCFFF"/>
<path d="M53.5509 23.5028C53.4276 23.4962 53.3343 23.4359 53.346 23.3652C53.356 23.2964 53.4643 23.2446 53.5892 23.2493C53.7125 23.2559 53.8041 23.3162 53.7941 23.3869C53.7825 23.4567 53.6742 23.5085 53.5509 23.5028Z" fill="#9FCFFF"/>
<path d="M0.219204 52.395C0.0875787 52.3894 -0.0107235 52.3243 0.000939495 52.2489C0.0109363 52.1745 0.1259 52.118 0.259191 52.1245C0.390816 52.1311 0.489118 52.1971 0.479121 52.2716C0.467458 52.346 0.350828 52.4016 0.219204 52.395Z" fill="#9FCFFF"/>
<path d="M66.1997 30.41C66.0614 30.4034 65.9565 30.3346 65.9665 30.2563C65.9798 30.1772 66.1014 30.1187 66.2431 30.1244C66.3797 30.131 66.4846 30.1998 66.4713 30.279C66.4613 30.3581 66.338 30.4175 66.1997 30.41Z" fill="#9FCFFF"/>
<path d="M58.749 28.3705C58.5457 28.3611 58.3957 28.2602 58.4124 28.1443C58.4291 28.0293 58.6073 27.9426 58.8106 27.953C59.0139 27.9624 59.1672 28.0632 59.1505 28.1792C59.1322 28.2941 58.9522 28.3799 58.749 28.3705Z" fill="#9FCFFF"/>
<path d="M59.5504 27.1409C59.4304 27.1362 59.3421 27.0768 59.3521 27.0089C59.3604 26.9411 59.4654 26.8921 59.5837 26.8968C59.702 26.9025 59.7919 26.9609 59.7836 27.0287C59.772 27.0975 59.6687 27.1465 59.5504 27.1409Z" fill="#9FCFFF"/>
<path d="M103.521 39.5556C103.313 39.5462 103.158 39.4425 103.175 39.3257C103.193 39.2088 103.376 39.1212 103.583 39.1306C103.79 39.14 103.945 39.2427 103.926 39.3605C103.908 39.4793 103.728 39.566 103.521 39.5556Z" fill="#9FCFFF"/>
<path d="M56.9746 55.4334C56.778 55.424 56.6314 55.3259 56.6497 55.2147C56.6664 55.1035 56.838 55.0206 57.0363 55.03C57.2329 55.0395 57.3795 55.1375 57.3628 55.2487C57.3445 55.3599 57.1712 55.4428 56.9746 55.4334Z" fill="#9FCFFF"/>
<path d="M54.7119 44.6819C54.5903 44.6762 54.5003 44.6159 54.512 44.5471C54.522 44.4802 54.6286 44.4284 54.7486 44.434C54.8686 44.4406 54.9585 44.5 54.9485 44.5688C54.9385 44.6366 54.8319 44.6866 54.7119 44.6819Z" fill="#9FCFFF"/>
<path d="M28.137 50.2956C27.957 50.2862 27.8221 50.1957 27.8354 50.0939C27.8504 49.9902 28.0087 49.9149 28.1919 49.9224C28.3719 49.9309 28.5085 50.0214 28.4935 50.125C28.4785 50.2277 28.3202 50.3041 28.137 50.2956Z" fill="#9FCFFF"/>
<path d="M26.4943 48.3562C26.381 48.3515 26.2977 48.2959 26.3077 48.2309C26.316 48.1677 26.4143 48.1206 26.5276 48.1253C26.6409 48.131 26.7242 48.1866 26.7142 48.2497C26.7042 48.3148 26.6059 48.3619 26.4943 48.3562Z" fill="#9FCFFF"/>
<path d="M42.7107 13.8109C42.564 13.8033 42.4557 13.7308 42.4674 13.6478C42.4791 13.5649 42.609 13.5037 42.754 13.5103C42.9023 13.5178 43.0089 13.5904 42.9972 13.6723C42.9856 13.7553 42.8573 13.8175 42.7107 13.8109Z" fill="#9FCFFF"/>
<path d="M40.1364 9.25098C40.0148 9.24438 39.9248 9.18407 39.9332 9.11527C39.9431 9.04742 40.0514 8.99559 40.1731 9.0003C40.293 9.00689 40.3847 9.06721 40.3747 9.13601C40.3647 9.2048 40.258 9.25569 40.1364 9.25098Z" fill="#9FCFFF"/>
<path d="M54.5753 34.9641C54.3971 34.9557 54.2654 34.8661 54.2788 34.7662C54.2938 34.6654 54.4504 34.59 54.6287 34.5994C54.8053 34.607 54.9369 34.6956 54.9219 34.7964C54.9086 34.8972 54.7519 34.9726 54.5753 34.9641Z" fill="#9FCFFF"/>
<path d="M62.1947 39.5426C62.0664 39.5369 61.9698 39.4729 61.9814 39.4003C61.9914 39.3277 62.1047 39.2731 62.233 39.2787C62.3613 39.2844 62.4579 39.3485 62.4479 39.421C62.4363 39.4945 62.323 39.5492 62.1947 39.5426Z" fill="#9FCFFF"/>
<path d="M50.9615 32.7777C50.8282 32.7711 50.7282 32.7051 50.7382 32.6288C50.7516 32.5524 50.8682 32.4959 51.0015 32.5025C51.1364 32.5091 51.2347 32.576 51.2231 32.6514C51.2131 32.7287 51.0948 32.7843 50.9615 32.7777Z" fill="#9FCFFF"/>
<path d="M62.2247 38.4063C62.0215 38.3969 61.8698 38.2961 61.8865 38.1802C61.9032 38.0661 62.0814 37.9804 62.2847 37.9889C62.4896 37.9992 62.6396 38.1001 62.6229 38.216C62.6063 38.33 62.428 38.4158 62.2247 38.4063Z" fill="#9FCFFF"/>
<path d="M60.7417 37.0935C60.6018 37.0869 60.4985 37.0163 60.5068 36.9362C60.5185 36.857 60.6434 36.7976 60.7867 36.8042C60.9283 36.8108 61.0333 36.8815 61.0217 36.9607C61.0083 37.0408 60.8834 37.1001 60.7417 37.0935Z" fill="#9FCFFF"/>
<path d="M55.1032 34.7356C54.9416 34.728 54.8217 34.6479 54.835 34.5556C54.8483 34.4642 54.9899 34.3954 55.1532 34.4029C55.3148 34.4104 55.4365 34.4915 55.4215 34.5839C55.4065 34.6743 55.2649 34.7431 55.1032 34.7356Z" fill="#9FCFFF"/>
<path d="M1.43221 21.8283C1.28225 21.8207 1.16896 21.7453 1.18395 21.6605C1.19561 21.5748 1.3289 21.5116 1.48052 21.5192C1.63214 21.5267 1.74377 21.6012 1.72878 21.6869C1.71711 21.7708 1.58549 21.8349 1.43221 21.8283Z" fill="#9FCFFF"/>
<path d="M11.8057 45.8454C11.5925 45.836 11.4308 45.7295 11.4492 45.6079C11.4675 45.4854 11.6558 45.3959 11.8707 45.4072C12.0856 45.4166 12.2456 45.5231 12.2273 45.6447C12.2106 45.7663 12.0223 45.8567 11.8057 45.8454Z" fill="#9FCFFF"/>
<path d="M11.942 45.1661C11.762 45.1585 11.6287 45.069 11.6437 44.9672C11.6587 44.8664 11.8153 44.791 11.9953 44.7995C12.1736 44.807 12.3069 44.8965 12.2935 44.9983C12.2785 45.0992 12.1202 45.1746 11.942 45.1661Z" fill="#9FCFFF"/>
<path d="M12.7687 44.7433C12.6221 44.7358 12.5121 44.6623 12.5238 44.5793C12.5355 44.4964 12.6671 44.4351 12.8137 44.4408C12.9603 44.4483 13.0703 44.5228 13.057 44.6057C13.047 44.6877 12.9187 44.7499 12.7687 44.7433Z" fill="#9FCFFF"/>
<path d="M13.3651 44.1925C13.2168 44.185 13.1052 44.1115 13.1185 44.0267C13.1285 43.9428 13.2618 43.8806 13.4101 43.8872C13.56 43.8947 13.67 43.9682 13.6583 44.0521C13.645 44.136 13.5151 44.2001 13.3651 44.1925Z" fill="#9FCFFF"/>
<path d="M30.2447 49.6487C30.1347 49.6449 30.0548 49.5902 30.0631 49.528C30.0714 49.4658 30.1681 49.4206 30.278 49.4263C30.3863 49.431 30.468 49.4847 30.458 49.5469C30.448 49.6081 30.3513 49.6543 30.2447 49.6487Z" fill="#9FCFFF"/>
<path d="M39.4569 24.841C39.2936 24.8334 39.172 24.7533 39.1853 24.661C39.1987 24.5686 39.3419 24.4989 39.5052 24.5064C39.6685 24.514 39.7918 24.5959 39.7768 24.6883C39.7651 24.7816 39.6202 24.8495 39.4569 24.841Z" fill="#9FCFFF"/>
<path d="M39.7915 25.2536C39.6665 25.2479 39.5732 25.1848 39.5816 25.1132C39.5932 25.0425 39.7015 24.9897 39.8298 24.9944C39.9548 25.0001 40.0498 25.0632 40.0398 25.1349C40.0281 25.2074 39.9181 25.2593 39.7915 25.2536Z" fill="#9FCFFF"/>
<path d="M36.1078 26.7663C35.8912 26.755 35.7329 26.6495 35.7512 26.5288C35.7695 26.4073 35.9578 26.3168 36.1727 26.3281C36.386 26.3375 36.5459 26.444 36.526 26.5656C36.5093 26.6853 36.321 26.7757 36.1078 26.7663Z" fill="#9FCFFF"/>
<path d="M37.7972 25.5486C37.6822 25.5439 37.5989 25.4873 37.6056 25.4223C37.6156 25.3573 37.7172 25.3083 37.8322 25.3139C37.9472 25.3196 38.0321 25.3761 38.0238 25.4411C38.0138 25.5062 37.9122 25.5542 37.7972 25.5486Z" fill="#9FCFFF"/>
<path d="M87.9512 27.6693C87.8045 27.6628 87.6962 27.5902 87.7079 27.5082C87.7196 27.4253 87.8479 27.364 87.9945 27.3706C88.1411 27.3772 88.2477 27.4498 88.2361 27.5318C88.2244 27.6147 88.0961 27.6759 87.9512 27.6693Z" fill="#9FCFFF"/>
<path d="M89.181 26.1132C89.056 26.1066 88.9627 26.0454 88.9744 25.9747C88.9844 25.905 89.0943 25.8522 89.2193 25.8578C89.3426 25.8644 89.4359 25.9266 89.4242 25.9964C89.4159 26.0661 89.3059 26.1198 89.181 26.1132Z" fill="#9FCFFF"/>
</g>
<path d="M8.01017 64.7693C8.15012 64.7928 8.29841 64.7466 8.34006 64.6675C8.38172 64.5883 8.30174 64.5054 8.16012 64.4818C8.02017 64.4583 7.87188 64.5035 7.83023 64.5827C7.78857 64.6618 7.87021 64.7457 8.01017 64.7693Z" fill="#9FCFFF"/>
<path d="M24.0998 62.097C24.3064 62.1309 24.523 62.064 24.5863 61.9471C24.6463 61.8303 24.5263 61.7078 24.3197 61.6729C24.1148 61.639 23.8982 61.7059 23.8365 61.8218C23.7732 61.9396 23.8932 62.063 24.0998 62.097Z" fill="#9FCFFF"/>
<path d="M32.9504 67.8746C33.1253 67.9029 33.3086 67.8473 33.3602 67.7474C33.4119 67.6494 33.3136 67.5448 33.137 67.5165C32.962 67.4873 32.7787 67.5438 32.7271 67.6418C32.6754 67.7417 32.7771 67.8454 32.9504 67.8746Z" fill="#9FCFFF"/>
<path d="M33.282 67.2627C33.4736 67.2947 33.6769 67.2316 33.7335 67.1232C33.7902 67.0139 33.6802 66.8998 33.4869 66.8678C33.2936 66.8358 33.0904 66.8979 33.0354 67.0073C32.9787 67.1156 33.0887 67.2306 33.282 67.2627Z" fill="#9FCFFF"/>
<path d="M34.425 67.5343C34.585 67.5597 34.7532 67.5088 34.8016 67.4165C34.8482 67.3251 34.7566 67.2299 34.5983 67.2035C34.4367 67.1762 34.2651 67.2289 34.2201 67.3204C34.1684 67.4108 34.2617 67.507 34.425 67.5343Z" fill="#9FCFFF"/>
<path d="M72.7895 62.1881C72.9627 62.2183 73.146 62.1608 73.196 62.0628C73.2493 61.9648 73.1494 61.8602 72.9744 61.8319C72.8011 61.8027 72.6195 61.8592 72.5662 61.9573C72.5129 62.0572 72.6145 62.1608 72.7895 62.1881Z" fill="#9FCFFF"/>
<path d="M15.7591 57.0355C15.8807 57.0562 16.0107 57.0166 16.0457 56.9469C16.0806 56.8781 16.0123 56.8046 15.8874 56.7838C15.7657 56.7631 15.6358 56.8027 15.6008 56.8724C15.5641 56.9422 15.6341 57.0138 15.7591 57.0355Z" fill="#9FCFFF"/>
<path d="M4.80924 55.8603C5.00917 55.8933 5.21911 55.8282 5.27909 55.7152C5.33907 55.6021 5.2241 55.4824 5.0225 55.4484C4.82257 55.4145 4.61097 55.4795 4.55265 55.5936C4.49434 55.7067 4.60763 55.8264 4.80924 55.8603Z" fill="#9FCFFF"/>
<path d="M2.84172 66.3541C3.02167 66.3843 3.20994 66.3258 3.26326 66.225C3.31491 66.1242 3.21327 66.0186 3.03333 65.9875C2.85339 65.9574 2.66678 66.0148 2.61513 66.1166C2.56181 66.2184 2.66511 66.3249 2.84172 66.3541Z" fill="#9FCFFF"/>
<path d="M2.56347 64.3665C2.7684 64.4005 2.985 64.3336 3.04498 64.2167C3.10496 64.0998 2.98833 63.9783 2.78173 63.9434C2.5768 63.9095 2.35853 63.9764 2.29855 64.0923C2.23857 64.2101 2.35687 64.3307 2.56347 64.3665Z" fill="#9FCFFF"/>
<path d="M8.50145 61.2485C8.6764 61.2777 8.85801 61.2221 8.90966 61.1231C8.96131 61.0251 8.85967 60.9214 8.68806 60.8932C8.51478 60.8649 8.33151 60.9196 8.27986 61.0185C8.22821 61.1175 8.32651 61.2202 8.50145 61.2485Z" fill="#9FCFFF"/>
<path d="M3.18326 56.6724C3.3532 56.7006 3.53481 56.645 3.58313 56.548C3.63312 56.4509 3.53648 56.3501 3.36487 56.3208C3.19325 56.2926 3.01331 56.3482 2.96333 56.4452C2.91168 56.5414 3.01165 56.6441 3.18326 56.6724Z" fill="#9FCFFF"/>
<path d="M17.792 54.8682C17.922 54.8908 18.0586 54.8484 18.0969 54.7749C18.1336 54.7004 18.0603 54.6241 17.9303 54.6024C17.802 54.5808 17.6654 54.6222 17.6271 54.6957C17.5871 54.7702 17.6637 54.8484 17.792 54.8682Z" fill="#9FCFFF"/>
<path d="M0.345694 59.5487C0.542298 59.5817 0.745567 59.5176 0.803882 59.4074C0.862197 59.2962 0.750565 59.1803 0.553961 59.1473C0.359023 59.1143 0.152422 59.1793 0.0941071 59.2896C0.0407907 59.3998 0.14909 59.5158 0.345694 59.5487Z" fill="#9FCFFF"/>
<path d="M15.2393 56.7378C15.3793 56.7614 15.5309 56.7152 15.5725 56.6351C15.6159 56.555 15.5342 56.4692 15.3909 56.4457C15.2493 56.4221 15.0977 56.4674 15.056 56.5484C15.0127 56.6285 15.0944 56.7133 15.2393 56.7378Z" fill="#9FCFFF"/>
<path d="M99.6857 58.616C99.8756 58.648 100.079 58.5868 100.134 58.4784C100.189 58.37 100.082 58.2579 99.8906 58.2249C99.699 58.1938 99.499 58.255 99.4424 58.3634C99.3841 58.4718 99.4941 58.5839 99.6857 58.616Z" fill="#9FCFFF"/>
<path d="M1.32031 66.4562C1.36696 66.3629 1.27533 66.2659 1.10871 66.2376C0.942098 66.2103 0.76882 66.264 0.722168 66.3573" fill="#9FCFFF"/>
<path d="M0.804013 50.4656C0.980624 50.4948 1.16723 50.4382 1.21888 50.3374C1.27053 50.2366 1.17056 50.132 0.992287 50.1028C0.815676 50.0726 0.629069 50.1301 0.577419 50.2309C0.525768 50.3308 0.627403 50.4354 0.804013 50.4656Z" fill="#9FCFFF"/>
<path d="M10.6211 45.9372C10.811 45.9683 11.011 45.9071 11.0676 45.7987C11.1243 45.6913 11.016 45.5772 10.8227 45.5452C10.6311 45.5141 10.4295 45.5753 10.3745 45.6837C10.3179 45.7912 10.4278 45.9052 10.6211 45.9372Z" fill="#9FCFFF"/>
<path d="M18.88 42.3161C19.0449 42.3425 19.2182 42.2897 19.2682 42.1955C19.3165 42.1012 19.2215 42.0032 19.0566 41.9759C18.89 41.9485 18.7167 42.0023 18.6684 42.0946C18.6184 42.1898 18.7133 42.2878 18.88 42.3161Z" fill="#9FCFFF"/>
<path d="M16.9672 43.1434C17.1721 43.1764 17.3871 43.1104 17.4471 42.9936C17.507 42.8776 17.3887 42.757 17.1855 42.7221C16.9822 42.6873 16.7656 42.7542 16.704 42.8701C16.644 42.986 16.7606 43.1085 16.9672 43.1434Z" fill="#9FCFFF"/>
<path d="M19.9429 42.6448C20.0595 42.6636 20.1795 42.6259 20.2145 42.5619C20.2495 42.495 20.1828 42.4271 20.0662 42.4082C19.9529 42.3894 19.8296 42.4262 19.7979 42.4921C19.7613 42.5572 19.8279 42.625 19.9429 42.6448Z" fill="#9FCFFF"/>
<path d="M17.9971 43.3939C18.1387 43.4165 18.2837 43.3713 18.3253 43.2921C18.367 43.2139 18.287 43.13 18.1454 43.1065C18.0071 43.0839 17.8588 43.1282 17.8172 43.2073C17.7772 43.2874 17.8572 43.3694 17.9971 43.3939Z" fill="#9FCFFF"/>
<path d="M20.959 48.892C21.1606 48.9259 21.3705 48.8609 21.4305 48.7478C21.4905 48.6338 21.3755 48.5131 21.1756 48.4792C20.9756 48.4462 20.7624 48.5122 20.7007 48.6243C20.6424 48.7393 20.7574 48.859 20.959 48.892Z" fill="#9FCFFF"/>
<path d="M10.6906 47.4953C10.7972 47.5132 10.9089 47.4783 10.9405 47.419C10.9722 47.3586 10.9122 47.2955 10.8055 47.2776C10.6973 47.2587 10.5856 47.2936 10.554 47.353C10.5223 47.4142 10.584 47.4774 10.6906 47.4953Z" fill="#9FCFFF"/>
<path d="M34.9864 36.6993C35.1363 36.7248 35.2963 36.6767 35.3396 36.5909C35.3846 36.5061 35.2979 36.4166 35.1463 36.3912C34.9963 36.3667 34.8381 36.4147 34.7947 36.4995C34.7514 36.5853 34.8364 36.6758 34.9864 36.6993Z" fill="#9FCFFF"/>
<path d="M14.5247 44.4917C14.703 44.5218 14.8929 44.4624 14.9479 44.3607C14.9996 44.2608 14.8979 44.1524 14.7197 44.1232C14.5381 44.093 14.3481 44.1514 14.2981 44.2532C14.2432 44.3541 14.3448 44.4606 14.5247 44.4917Z" fill="#9FCFFF"/>
<path d="M16.2373 43.7905C16.389 43.8159 16.5506 43.7669 16.5939 43.6802C16.6389 43.5944 16.5539 43.504 16.4006 43.4794C16.249 43.454 16.0891 43.5021 16.0424 43.5897C15.9991 43.6745 16.0857 43.765 16.2373 43.7905Z" fill="#9FCFFF"/>
<path d="M29.0819 39.2501C29.2485 39.2775 29.4234 39.2247 29.4717 39.1304C29.5201 39.0362 29.4251 38.9382 29.2601 38.9109C29.0952 38.8826 28.9219 38.9363 28.8736 39.0305C28.8236 39.1238 28.9169 39.2219 29.0819 39.2501Z" fill="#9FCFFF"/>
<path d="M2.51872 44.389C2.70199 44.4191 2.89693 44.3588 2.95191 44.2551C3.00523 44.1505 2.90026 44.0393 2.71366 44.0092C2.52705 43.9781 2.33378 44.0384 2.28046 44.143C2.22548 44.2466 2.33044 44.3579 2.51872 44.389Z" fill="#9FCFFF"/>
<path d="M58.2107 64.5479C58.369 64.5752 58.5356 64.5234 58.5823 64.4338C58.6289 64.3443 58.5406 64.251 58.3807 64.2237C58.2241 64.1973 58.0558 64.2491 58.0091 64.3377C57.9642 64.4272 58.0541 64.5215 58.2107 64.5479Z" fill="#9FCFFF"/>
<path d="M53.1391 59.6543C53.3191 59.6845 53.5123 59.6251 53.5673 59.5224C53.6206 59.4178 53.5173 59.3094 53.3357 59.2802C53.1508 59.2481 52.9608 59.3075 52.9059 59.4112C52.8509 59.5148 52.9542 59.6232 53.1391 59.6543Z" fill="#9FCFFF"/>
<path d="M0.424108 54.2442C0.545736 54.264 0.672362 54.2245 0.709018 54.1575C0.744006 54.0887 0.675695 54.0171 0.554067 53.9964C0.432439 53.9766 0.305812 54.0152 0.269157 54.0831C0.234168 54.1528 0.30248 54.2245 0.424108 54.2442Z" fill="#9FCFFF"/>
<path d="M6.37043 50.7466C6.54371 50.7767 6.72699 50.7192 6.77864 50.6203C6.83029 50.5204 6.73032 50.4167 6.55537 50.3875C6.37876 50.3583 6.19549 50.4158 6.14384 50.5138C6.09385 50.6127 6.19549 50.7173 6.37043 50.7466Z" fill="#9FCFFF"/>
<path d="M11.1155 55.0222C11.2604 55.0458 11.4104 54.9986 11.4521 54.9185C11.4954 54.8375 11.4121 54.7517 11.2688 54.7282C11.1255 54.7037 10.9739 54.7508 10.9306 54.8318C10.8906 54.9129 10.9722 54.9977 11.1155 55.0222Z" fill="#9FCFFF"/>
<path d="M78.0029 78.9981C78.0446 78.9161 77.9613 78.8304 77.8197 78.8059C77.6747 78.7823 77.5231 78.8294 77.4814 78.9105" fill="#9FCFFF"/>
<path d="M17.602 69.4709C17.662 69.3569 17.5454 69.2382 17.3438 69.2042C17.1422 69.1703 16.9289 69.2363 16.8706 69.3494" fill="#9FCFFF"/>
<path d="M69.3305 53.894C69.4788 53.9194 69.6387 53.8704 69.682 53.7856C69.727 53.6999 69.6404 53.6103 69.4888 53.5858C69.3371 53.5604 69.1805 53.6094 69.1355 53.6942C69.0922 53.78 69.1772 53.8695 69.3305 53.894Z" fill="#9FCFFF"/>
<path d="M79.1907 52.5814C79.344 52.6059 79.5039 52.5568 79.5489 52.4711C79.5922 52.3844 79.5073 52.2939 79.3523 52.2694C79.199 52.244 79.0408 52.293 78.9958 52.3797C78.9525 52.4645 79.0391 52.555 79.1907 52.5814Z" fill="#9FCFFF"/>
<path d="M49.5385 57.4311C49.7252 57.4632 49.9218 57.4019 49.9784 57.2964C50.0334 57.1899 49.9251 57.0796 49.7385 57.0476C49.5519 57.0155 49.3553 57.0768 49.2986 57.1823C49.2436 57.2879 49.3503 57.4 49.5385 57.4311Z" fill="#9FCFFF"/>
<path d="M60.5451 55.656C60.715 55.6853 60.8916 55.6297 60.9416 55.5345C60.9916 55.4393 60.895 55.3394 60.7267 55.3102C60.5601 55.2819 60.3818 55.3366 60.3318 55.4327C60.2801 55.5288 60.3768 55.6287 60.5451 55.656Z" fill="#9FCFFF"/>
<path d="M14.9431 68.5856C15.1164 68.6138 15.293 68.5582 15.3429 68.4621C15.3929 68.366 15.2963 68.2642 15.1247 68.235C14.9531 68.2067 14.7748 68.2614 14.7248 68.3584C14.6732 68.4555 14.7731 68.5563 14.9431 68.5856Z" fill="#9FCFFF"/>
<path d="M49.6149 62.734C49.7265 62.7528 49.8431 62.717 49.8764 62.6529C49.9098 62.5898 49.8448 62.5229 49.7332 62.504C49.6215 62.4852 49.5032 62.521 49.4699 62.5851C49.4366 62.6482 49.5016 62.7151 49.6149 62.734Z" fill="#9FCFFF"/>
<path d="M49.2388 62.1734C49.3621 62.1941 49.4937 62.1545 49.5287 62.0839C49.567 62.0132 49.4953 61.9387 49.372 61.9189C49.2471 61.8973 49.1138 61.9378 49.0788 62.0085C49.0422 62.0791 49.1121 62.1536 49.2388 62.1734Z" fill="#9FCFFF"/>
<path d="M0.395788 44.888C0.585728 44.9191 0.783999 44.8578 0.838981 44.7513C0.893964 44.6449 0.787331 44.5327 0.599057 44.5016C0.410784 44.4696 0.210847 44.5318 0.157531 44.6373C0.100882 44.7438 0.207515 44.856 0.395788 44.888Z" fill="#9FCFFF"/>
<path d="M30.991 61.039C31.1842 61.0719 31.3892 61.0088 31.4458 60.8995C31.5041 60.7902 31.3958 60.6752 31.1992 60.6422C31.0043 60.6102 30.801 60.6724 30.7444 60.7826C30.6861 60.8919 30.796 61.0069 30.991 61.039Z" fill="#9FCFFF"/>
<path d="M15.3328 59.2218C15.4611 59.2425 15.5944 59.202 15.6327 59.1304C15.6694 59.0588 15.5961 58.9815 15.4694 58.9608C15.3428 58.9391 15.2095 58.9815 15.1712 59.0531C15.1312 59.1247 15.2062 59.2011 15.3328 59.2218Z" fill="#9FCFFF"/>
<path d="M14.2648 60.0926C14.4698 60.1275 14.6797 60.0615 14.7397 59.9475C14.8013 59.8325 14.683 59.7119 14.4814 59.6779C14.2781 59.644 14.0649 59.709 14.0049 59.824C13.9466 59.939 14.0615 60.0587 14.2648 60.0926Z" fill="#9FCFFF"/>
<path d="M21.3474 44.2925C21.4657 44.3122 21.5907 44.2736 21.6257 44.2076C21.6607 44.1417 21.5907 44.071 21.4757 44.0521C21.3574 44.0323 21.2325 44.07 21.1991 44.137C21.1642 44.2039 21.2291 44.2727 21.3474 44.2925Z" fill="#9FCFFF"/>
<path d="M21.822 65.5286C21.967 65.5531 22.1186 65.506 22.1636 65.424C22.2053 65.342 22.1219 65.2562 21.977 65.2317C21.8337 65.2082 21.6804 65.2543 21.6371 65.3363C21.5971 65.4183 21.6788 65.505 21.822 65.5286Z" fill="#9FCFFF"/>
<path d="M20.6893 43.9772C20.8975 44.0121 21.1141 43.9451 21.1758 43.8273C21.2374 43.7095 21.1191 43.587 20.9109 43.5531C20.7043 43.5182 20.486 43.5861 20.426 43.703C20.3627 43.8198 20.481 43.9433 20.6893 43.9772Z" fill="#9FCFFF"/>
<path d="M62.4411 75.8048C62.5727 75.8255 62.7127 75.7841 62.7477 75.7087C62.7893 75.6342 62.7143 75.556 62.5811 75.5343C62.4511 75.5117 62.3128 75.5551 62.2728 75.6295C62.2328 75.7049 62.3095 75.7831 62.4411 75.8048Z" fill="#9FCFFF"/>
<path d="M2.75155 49.7028C2.91817 49.7302 3.09311 49.6774 3.14143 49.5822C3.19141 49.488 3.09478 49.389 2.92816 49.3617C2.76155 49.3344 2.58661 49.3871 2.53662 49.4814C2.4883 49.5766 2.58494 49.6755 2.75155 49.7028Z" fill="#9FCFFF"/>
<path d="M117.714 61.1087C117.832 61.1285 117.957 61.0899 117.99 61.0239C118.027 60.9561 117.958 60.8854 117.838 60.8656C117.72 60.8458 117.594 60.8835 117.562 60.9523C117.525 61.0192 117.594 61.0899 117.714 61.1087Z" fill="#9FCFFF"/>
<path d="M43.9952 39.5039C44.1701 39.5321 44.3551 39.4756 44.405 39.3766C44.4567 39.2786 44.3567 39.174 44.1818 39.1457C44.0068 39.1156 43.8236 39.1731 43.7719 39.2711C43.7219 39.371 43.8219 39.4746 43.9952 39.5039Z" fill="#9FCFFF"/>
<path d="M67.4878 30.0969C67.6061 30.1167 67.7344 30.078 67.7694 30.0102C67.8027 29.9423 67.7377 29.8717 67.6161 29.8519C67.4945 29.8321 67.3712 29.8707 67.3362 29.9376C67.2995 30.0064 67.3695 30.0771 67.4878 30.0969Z" fill="#9FCFFF"/>
<path d="M26.5175 70.2187C26.7025 70.2489 26.9024 70.1886 26.9557 70.0821C27.0124 69.9756 26.9057 69.8644 26.7158 69.8323C26.5275 69.8012 26.3309 69.8625 26.2759 69.968C26.2226 70.0755 26.3292 70.1867 26.5175 70.2187Z" fill="#9FCFFF"/>
<path d="M10.9691 68.0972C11.0241 67.9907 10.9174 67.8795 10.7292 67.8484C10.5409 67.8163 10.3426 67.8776 10.2893 67.9841" fill="#9FCFFF"/>
<path d="M25.003 70.1568C25.0413 70.0843 24.968 70.0089 24.8397 69.9872C24.7131 69.9655 24.5781 70.007 24.5398 70.0786" fill="#9FCFFF"/>
<path d="M13.4133 67.8081C13.525 67.827 13.6433 67.7902 13.6766 67.7271C13.7099 67.6639 13.6449 67.5961 13.5333 67.5782C13.42 67.5593 13.3017 67.5961 13.2684 67.6592C13.2351 67.7224 13.2984 67.7902 13.4133 67.8081Z" fill="#9FCFFF"/>
<path d="M3.07004 64.9929C3.205 65.0155 3.34829 64.9712 3.38661 64.8939C3.4266 64.8176 3.34996 64.7365 3.21333 64.7139C3.07837 64.6913 2.93509 64.7356 2.8951 64.8119C2.85511 64.8902 2.93175 64.9703 3.07004 64.9929Z" fill="#9FCFFF"/>
<path d="M31.9458 70.6392C32.0558 70.6572 32.1674 70.6223 32.199 70.561C32.2324 70.4998 32.1691 70.4357 32.0608 70.4178C31.9541 70.3999 31.8392 70.4347 31.8075 70.496C31.7775 70.5573 31.8375 70.6213 31.9458 70.6392Z" fill="#9FCFFF"/>
<path d="M4.98615 66.9299C5.03447 66.8404 4.94117 66.7452 4.78288 66.7188C4.62293 66.6924 4.45632 66.7442 4.40967 66.8338" fill="#9FCFFF"/>
<path d="M8.85638 67.2478C8.91303 67.1422 8.80473 67.031 8.61813 66.999C8.43152 66.9688 8.23491 67.0291 8.17993 67.1356" fill="#9FCFFF"/>
<path d="M9.87607 67.5075C9.92106 67.4198 9.83275 67.3284 9.67947 67.3039C9.52618 67.2775 9.36457 67.3275 9.31958 67.4151" fill="#9FCFFF"/>
<path d="M15.8059 64.5778C15.9525 64.6023 16.1042 64.5542 16.1475 64.4723C16.1908 64.3903 16.1075 64.3045 15.9625 64.28C15.8176 64.2555 15.6643 64.3017 15.621 64.3846C15.5777 64.4666 15.6593 64.5533 15.8059 64.5778Z" fill="#9FCFFF"/>
<path d="M23.55 66.7991C23.6716 66.8189 23.7982 66.7793 23.8332 66.7105C23.8699 66.6417 23.7999 66.5691 23.6799 66.5484C23.5566 66.5277 23.43 66.5682 23.395 66.6361C23.3583 66.7058 23.4283 66.7774 23.55 66.7991Z" fill="#9FCFFF"/>
<path d="M48.1173 67.1723C48.2339 67.1921 48.3589 67.1535 48.3922 67.0875C48.4272 67.0206 48.3605 66.9518 48.2422 66.9329C48.1256 66.9131 48.004 66.9518 47.9673 67.0168C47.934 67.0837 48.0006 67.1535 48.1173 67.1723Z" fill="#9FCFFF"/>
<path d="M13.8482 65.1322C13.9982 65.1567 14.1565 65.1086 14.2014 65.0229C14.2464 64.9371 14.1598 64.8476 14.0082 64.8222C13.8582 64.7967 13.6999 64.8457 13.655 64.9315C13.61 65.0163 13.6966 65.1058 13.8482 65.1322Z" fill="#9FCFFF"/>
<path d="M8.33618 67.3842C8.39116 67.2796 8.28619 67.1712 8.10125 67.1411C7.91631 67.11 7.7247 67.1694 7.67139 67.274" fill="#9FCFFF"/>
<path d="M19.1233 68.1854C19.2499 68.2071 19.3849 68.1656 19.4215 68.093C19.4599 68.0214 19.3866 67.946 19.2583 67.9244C19.1316 67.9036 18.9983 67.9441 18.96 68.0167C18.925 68.0893 18.9967 68.1647 19.1233 68.1854Z" fill="#9FCFFF"/>
<path d="M10.9874 57.2851C11.144 57.3115 11.3122 57.2597 11.3572 57.1702C11.4056 57.0806 11.3139 56.9873 11.1556 56.96C10.999 56.9336 10.8307 56.9855 10.7857 57.075C10.7391 57.1645 10.8291 57.2588 10.9874 57.2851Z" fill="#9FCFFF"/>
<path d="M11.5337 68.0946C11.7387 68.1276 11.9519 68.0626 12.0136 67.9467C12.0736 67.8308 11.9586 67.7092 11.7537 67.6753C11.5487 67.6404 11.3338 67.7073 11.2738 67.8223C11.2122 67.9391 11.3288 68.0617 11.5337 68.0946Z" fill="#9FCFFF"/>
<path d="M12.1855 65.4701C12.3638 65.5012 12.5471 65.4437 12.6004 65.3429C12.6537 65.243 12.5521 65.1384 12.3755 65.1082C12.1972 65.079 12.0139 65.1365 11.9606 65.2354C11.909 65.3372 12.0089 65.4409 12.1855 65.4701Z" fill="#9FCFFF"/>
<path d="M5.87733 64.9737C6.05894 65.0048 6.25388 64.9455 6.3072 64.8418C6.36051 64.7381 6.25555 64.6298 6.07227 64.5987C5.889 64.5685 5.69739 64.6279 5.64241 64.7315C5.58743 64.8343 5.69406 64.9426 5.87733 64.9737Z" fill="#9FCFFF"/>
<path d="M23.2336 69.3483C23.4052 69.3765 23.5835 69.3219 23.6352 69.2248C23.6851 69.1277 23.5885 69.0269 23.4186 68.9977C23.2469 68.9694 23.0687 69.0241 23.0187 69.1211C22.9654 69.2182 23.0637 69.319 23.2336 69.3483Z" fill="#9FCFFF"/>
<path d="M16.219 66.2817C16.4156 66.3147 16.6239 66.2506 16.6822 66.1394C16.7405 66.0282 16.6289 65.9114 16.4289 65.8765C16.2307 65.8444 16.0241 65.9076 15.9658 66.0197C15.9074 66.1328 16.0207 66.2487 16.219 66.2817Z" fill="#9FCFFF"/>
<path d="M29.4532 71.2729C29.5016 71.1853 29.4116 71.0929 29.255 71.0665C29.0984 71.0402 28.9351 71.0911 28.8884 71.1787" fill="#9FCFFF"/>
<path d="M4.75107 62.8022C4.90602 62.8276 5.06597 62.7786 5.11095 62.691C5.15761 62.6043 5.0693 62.5119 4.91602 62.4865C4.76106 62.4601 4.60278 62.511 4.55446 62.5977C4.50948 62.6853 4.59778 62.7767 4.75107 62.8022Z" fill="#9FCFFF"/>
<path d="M20.6412 64.6361C20.7828 64.6606 20.9345 64.6144 20.9761 64.5334C21.0194 64.4523 20.9378 64.3675 20.7945 64.343C20.6512 64.3194 20.5029 64.3665 20.4596 64.4467C20.4163 64.5286 20.4979 64.6125 20.6412 64.6361Z" fill="#9FCFFF"/>
<path d="M19.2914 53.5304C19.468 53.5586 19.653 53.5021 19.7063 53.4031C19.7579 53.3023 19.6563 53.1986 19.4814 53.1685C19.3048 53.1402 19.1198 53.1958 19.0682 53.2966C19.0148 53.3956 19.1165 53.5011 19.2914 53.5304Z" fill="#9FCFFF"/>
<path d="M31.9541 65.0008C32.1524 65.0329 32.359 64.9697 32.419 64.8576C32.4773 64.7454 32.364 64.6286 32.1657 64.5956C31.9691 64.5626 31.7625 64.6267 31.7042 64.7379C31.6459 64.851 31.7575 64.9678 31.9541 65.0008Z" fill="#9FCFFF"/>
<path d="M24.2266 56.0065C24.3549 56.0273 24.4865 55.9858 24.5249 55.9142C24.5615 55.8425 24.4899 55.7662 24.3632 55.7464C24.2349 55.7238 24.1017 55.7653 24.065 55.8369C24.0283 55.9095 24.1 55.9858 24.2266 56.0065Z" fill="#9FCFFF"/>
<path d="M44.1219 37.2833C44.2535 37.306 44.3918 37.2636 44.4318 37.1882C44.4685 37.1137 44.3951 37.0364 44.2619 37.0138C44.1319 36.9912 43.9919 37.0346 43.9536 37.109C43.9153 37.1835 43.9903 37.2607 44.1219 37.2833Z" fill="#9FCFFF"/>
<path d="M34.4451 68.9593C34.5584 68.9791 34.6783 68.9414 34.71 68.8764C34.745 68.8114 34.6783 68.7445 34.5634 68.7247C34.4501 68.7058 34.3301 68.7426 34.2968 68.8076C34.2635 68.8717 34.3285 68.9395 34.4451 68.9593Z" fill="#9FCFFF"/>
<path d="M67.6693 64.2428C67.7859 64.2626 67.9076 64.2249 67.9409 64.1589C67.9742 64.0939 67.9076 64.0241 67.7926 64.0053C67.676 63.9855 67.5544 64.0232 67.521 64.0891C67.486 64.1551 67.5527 64.2249 67.6693 64.2428Z" fill="#9FCFFF"/>
<path d="M52.3007 74.0331C52.4457 74.0566 52.5939 74.0104 52.6389 73.9294C52.6806 73.8483 52.5989 73.7635 52.4557 73.74C52.3124 73.7155 52.1607 73.7616 52.1208 73.8436C52.0774 73.9247 52.1591 74.0085 52.3007 74.0331Z" fill="#9FCFFF"/>
<path d="M57.2262 75.4239C57.3461 75.4447 57.4711 75.406 57.5077 75.3372C57.5427 75.2694 57.4761 75.1987 57.3545 75.178C57.2362 75.1582 57.1095 75.1978 57.0729 75.2647C57.0379 75.3325 57.1062 75.4041 57.2262 75.4239Z" fill="#9FCFFF"/>
<path d="M55.3615 71.7445C55.5315 71.7728 55.7098 71.7181 55.7597 71.6229C55.8097 71.5259 55.7131 71.426 55.5431 71.3968C55.3732 71.3694 55.1966 71.4231 55.1466 71.5193C55.0949 71.6163 55.1932 71.7162 55.3615 71.7445Z" fill="#9FCFFF"/>
<path d="M83.8195 72.7992C83.9428 72.8199 84.0695 72.7803 84.1078 72.7125C84.1428 72.6427 84.0745 72.5711 83.9512 72.5504C83.8312 72.5296 83.7012 72.5702 83.6663 72.638C83.6296 72.7077 83.6996 72.7794 83.8195 72.7992Z" fill="#9FCFFF"/>
<path d="M60.6685 74.7661C60.8484 74.7963 61.0367 74.7378 61.0883 74.636C61.1433 74.5352 61.04 74.4287 60.8601 74.3986C60.6801 74.3684 60.4935 74.4268 60.4402 74.5286C60.3869 74.6304 60.4885 74.7359 60.6685 74.7661Z" fill="#9FCFFF"/>
<path d="M40.7361 73.1717C40.7828 73.0812 40.6895 72.987 40.5295 72.9587C40.3712 72.9332 40.2046 72.9841 40.158 73.0746" fill="#9FCFFF"/>
<path d="M62.7677 67.686C62.886 67.7049 63.0093 67.6672 63.0426 67.6012C63.0776 67.5343 63.0093 67.4645 62.8926 67.4457C62.776 67.4259 62.6527 67.4636 62.6177 67.5296C62.5844 67.5965 62.651 67.6662 62.7677 67.686Z" fill="#9FCFFF"/>
<path d="M80.2005 71.2458C80.3488 71.2693 80.5054 71.2222 80.5487 71.1374C80.5921 71.0545 80.5071 70.9649 80.3605 70.9414C80.2105 70.9159 80.0539 70.964 80.0106 71.0479C79.9689 71.1327 80.0539 71.2203 80.2005 71.2458Z" fill="#9FCFFF"/>
<path d="M71.3534 70.8261C71.4784 70.8468 71.605 70.8053 71.64 70.7375C71.6767 70.6677 71.6067 70.5952 71.4851 70.5744C71.3634 70.5546 71.2335 70.5942 71.1985 70.663C71.1602 70.7328 71.2301 70.8044 71.3534 70.8261Z" fill="#9FCFFF"/>
<path d="M83.5579 72.1882C83.6928 72.2108 83.8361 72.1665 83.8778 72.0892C83.9178 72.011 83.8395 71.9299 83.7028 71.9083C83.5662 71.8856 83.4229 71.9299 83.3846 72.0063C83.3413 72.0836 83.4213 72.1646 83.5579 72.1882Z" fill="#9FCFFF"/>
<path d="M9.31285 48.0629C9.47114 48.0884 9.63775 48.0375 9.6844 47.9479C9.73106 47.8575 9.64108 47.7632 9.48113 47.7378C9.32285 47.7104 9.15624 47.7623 9.10959 47.8518C9.06127 47.9423 9.15291 48.0365 9.31285 48.0629Z" fill="#9FCFFF"/>
<path d="M45.4615 39.2743C45.5814 39.2932 45.7064 39.2564 45.7414 39.1876C45.7764 39.1217 45.708 39.051 45.5897 39.0302C45.4698 39.0114 45.3465 39.0491 45.3098 39.1169C45.2765 39.1829 45.3432 39.2536 45.4615 39.2743Z" fill="#9FCFFF"/>
<path d="M76.7215 77.119C76.8481 77.1407 76.9814 77.0992 77.0181 77.0276C77.0564 76.956 76.9848 76.8797 76.8565 76.8589C76.7298 76.8382 76.5949 76.8787 76.5566 76.9503C76.5199 77.0229 76.5932 77.0983 76.7215 77.119Z" fill="#9FCFFF"/>
<path d="M29.2548 43.1266C29.3881 43.1492 29.5298 43.1058 29.5714 43.0314C29.6097 42.9551 29.5331 42.875 29.3981 42.8523C29.2665 42.8307 29.1249 42.8731 29.0866 42.9494C29.0449 43.0248 29.1215 43.1049 29.2548 43.1266Z" fill="#9FCFFF"/>
<path d="M37.5039 42.752C37.7005 42.785 37.9054 42.7209 37.9637 42.6097C38.022 42.4985 37.9104 42.3816 37.7138 42.3505C37.5172 42.3176 37.3123 42.3807 37.2523 42.4928C37.1956 42.6022 37.3073 42.72 37.5039 42.752Z" fill="#9FCFFF"/>
<path d="M37.5443 41.4399C37.6592 41.4597 37.7792 41.4229 37.8125 41.3569C37.8475 41.2919 37.7809 41.2241 37.6676 41.2052C37.5543 41.1864 37.4326 41.2222 37.3977 41.2881C37.366 41.3541 37.431 41.421 37.5443 41.4399Z" fill="#9FCFFF"/>
<path d="M21.8623 68.3437C22.0523 68.3748 22.2506 68.3135 22.3055 68.207C22.3605 68.0996 22.2522 67.9874 22.0639 67.9563C21.8757 67.9252 21.6757 67.9865 21.6208 68.093C21.5658 68.2004 21.6741 68.3126 21.8623 68.3437Z" fill="#9FCFFF"/>
<path d="M30.8428 58.7811C30.9594 58.8009 31.081 58.7632 31.116 58.6972C31.1494 58.6322 31.0827 58.5634 30.9677 58.5436C30.8511 58.5257 30.7312 58.5624 30.6945 58.6284C30.6612 58.6925 30.7295 58.7613 30.8428 58.7811Z" fill="#9FCFFF"/>
<path d="M52.0328 69.4517C52.206 69.48 52.391 69.4234 52.4426 69.3254C52.4943 69.2265 52.3943 69.1228 52.2194 69.0927C52.0461 69.0634 51.8612 69.12 51.8095 69.2189C51.7579 69.3188 51.8578 69.4216 52.0328 69.4517Z" fill="#9FCFFF"/>
<path d="M54.8034 67.981C54.9117 67.9999 55.0267 67.965 55.0567 67.9028C55.0884 67.8425 55.0267 67.7775 54.9184 67.7596C54.8084 67.7417 54.6968 67.7765 54.6652 67.8378C54.6335 67.9 54.6968 67.9641 54.8034 67.981Z" fill="#9FCFFF"/>
<path d="M61.7646 32.4546C61.9062 32.4772 62.0545 32.433 62.0961 32.3519C62.1378 32.2727 62.0578 32.1889 61.9162 32.1644C61.7729 32.1408 61.6263 32.187 61.5846 32.2661C61.543 32.3472 61.6246 32.4311 61.7646 32.4546Z" fill="#9FCFFF"/>
<path d="M67.0778 28.7302C67.1961 28.749 67.3178 28.7113 67.3544 28.6454C67.3877 28.5794 67.3211 28.5097 67.2045 28.4899C67.0878 28.472 66.9645 28.5087 66.9312 28.5756C66.8946 28.6416 66.9612 28.7104 67.0778 28.7302Z" fill="#9FCFFF"/>
<path d="M37.1808 49.7538C37.3524 49.7821 37.5324 49.7265 37.584 49.6303C37.634 49.5333 37.5357 49.4305 37.3641 49.4032C37.1941 49.374 37.0159 49.4305 36.9642 49.5267C36.9126 49.6237 37.0109 49.7255 37.1808 49.7538Z" fill="#9FCFFF"/>
<path d="M27.1506 52.463C27.2738 52.4838 27.4038 52.4442 27.4405 52.3735C27.4771 52.3038 27.4055 52.2303 27.2822 52.2095C27.1589 52.1888 27.0289 52.2293 26.9923 52.2991C26.9556 52.3697 27.0273 52.4432 27.1506 52.463Z" fill="#9FCFFF"/>
<path d="M41.9475 48.454C42.0758 48.4757 42.2124 48.4343 42.2507 48.3617C42.2874 48.2882 42.2141 48.2118 42.0858 48.1902C41.9575 48.1685 41.8209 48.2118 41.7842 48.2835C41.7442 48.357 41.8192 48.4333 41.9475 48.454Z" fill="#9FCFFF"/>
<path d="M27.8505 51.3972C28.0471 51.4302 28.252 51.367 28.3103 51.2549C28.367 51.1446 28.2553 51.0287 28.0604 50.9957C27.8638 50.9637 27.6589 51.0259 27.6006 51.138C27.5439 51.2483 27.6539 51.3651 27.8505 51.3972Z" fill="#9FCFFF"/>
<path d="M30.0731 50.4763C30.208 50.4989 30.3497 50.4546 30.393 50.3773C30.433 50.301 30.3547 50.2199 30.2164 50.1973C30.0814 50.1747 29.9381 50.219 29.8981 50.2953C29.8565 50.3726 29.9348 50.4537 30.0731 50.4763Z" fill="#9FCFFF"/>
<path d="M36.8342 49.4325C36.9908 49.4589 37.1541 49.408 37.2008 49.3194C37.2458 49.2318 37.1575 49.1385 37.0008 49.1121C36.8442 49.0866 36.6809 49.1366 36.6343 49.2261C36.591 49.3138 36.6793 49.4071 36.8342 49.4325Z" fill="#9FCFFF"/>
<path d="M95.1271 48.3707C95.272 48.3942 95.4253 48.3471 95.467 48.2651C95.5103 48.1831 95.427 48.0964 95.282 48.0729C95.1371 48.0484 94.9838 48.0955 94.9438 48.1784C94.8971 48.2585 94.9788 48.3452 95.1271 48.3707Z" fill="#9FCFFF"/>
<path d="M70.1035 68.6428C70.3084 68.6776 70.5267 68.6117 70.5884 68.4939C70.65 68.3761 70.5317 68.2535 70.3234 68.2196C70.1168 68.1838 69.9002 68.2507 69.8386 68.3685C69.7769 68.4863 69.8952 68.6098 70.1035 68.6428Z" fill="#9FCFFF"/>
<path d="M70.4117 67.9832C70.585 68.0134 70.7649 67.9568 70.8149 67.8588C70.8649 67.7618 70.7683 67.659 70.595 67.6308C70.4234 67.6015 70.2418 67.6581 70.1901 67.7552C70.1401 67.8522 70.2401 67.9549 70.4117 67.9832Z" fill="#9FCFFF"/>
<path d="M69.9105 67.417C70.0521 67.4396 70.2004 67.3944 70.2437 67.3134C70.2853 67.2342 70.202 67.1494 70.0621 67.1249C69.9205 67.1023 69.7722 67.1484 69.7305 67.2285C69.6872 67.3087 69.7672 67.3925 69.9105 67.417Z" fill="#9FCFFF"/>
<path d="M69.7053 66.7836C69.8486 66.8071 69.9985 66.761 70.0418 66.679C70.0868 66.5989 70.0018 66.5131 69.8586 66.4896C69.7136 66.466 69.5653 66.5122 69.522 66.5923C69.482 66.6733 69.562 66.76 69.7053 66.7836Z" fill="#9FCFFF"/>
<path d="M50.4832 68.4189C50.5882 68.4368 50.6965 68.4029 50.7298 68.3435C50.7614 68.2841 50.6998 68.2219 50.5948 68.205C50.4915 68.1871 50.3799 68.221 50.3499 68.2804C50.3199 68.3397 50.3782 68.4019 50.4832 68.4189Z" fill="#9FCFFF"/>
<path d="M57.7476 43.4054C57.9059 43.4318 58.0692 43.3819 58.1158 43.2923C58.1625 43.2038 58.0725 43.1095 57.9159 43.0831C57.7593 43.0567 57.591 43.1076 57.546 43.1981C57.4994 43.2867 57.5893 43.38 57.7476 43.4054Z" fill="#9FCFFF"/>
<path d="M57.173 43.7227C57.293 43.7434 57.4213 43.7029 57.4579 43.6341C57.4929 43.5653 57.4246 43.4946 57.303 43.4729C57.1813 43.4532 57.053 43.4918 57.0181 43.5606C56.9814 43.6303 57.0514 43.702 57.173 43.7227Z" fill="#9FCFFF"/>
<path d="M59.6404 45.8836C59.8486 45.9175 60.0652 45.8515 60.1252 45.7347C60.1869 45.6169 60.0686 45.4944 59.8603 45.4614C59.6554 45.4265 59.4388 45.4934 59.3788 45.6112C59.3171 45.7271 59.4338 45.8487 59.6404 45.8836Z" fill="#9FCFFF"/>
<path d="M58.8439 44.406C58.9538 44.4249 59.0688 44.3891 59.1021 44.3278C59.1338 44.2647 59.0705 44.1987 58.9605 44.1808C58.8505 44.162 58.7356 44.1978 58.7022 44.26C58.6689 44.3231 58.7322 44.3881 58.8439 44.406Z" fill="#9FCFFF"/>
<path d="M10.7257 36.1237C10.8656 36.1473 11.0139 36.103 11.0556 36.0229C11.0972 35.9428 11.0156 35.8589 10.8756 35.8353C10.7357 35.8118 10.5891 35.857 10.5474 35.9371C10.5058 36.0172 10.5857 36.1011 10.7257 36.1237Z" fill="#9FCFFF"/>
<path d="M10.5723 34.4229C10.6939 34.4427 10.8189 34.4041 10.8539 34.3362C10.8889 34.2693 10.8205 34.1977 10.7006 34.177C10.5806 34.1572 10.454 34.1968 10.4207 34.2646C10.3857 34.3315 10.4523 34.4032 10.5723 34.4229Z" fill="#9FCFFF"/>
<defs>
<linearGradient id="paint0_linear_64_1432" x1="1.7624e-05" y1="34.0021" x2="1184.5" y2="0.00368208" gradientUnits="userSpaceOnUse">
<stop stop-color="#18233E"/>
<stop offset="0.475091" stop-color="#233582"/>
<stop offset="0.828125" stop-color="#153CDF"/>
</linearGradient>
<linearGradient id="paint1_linear_64_1432" x1="13.7159" y1="51.0701" x2="39.5103" y2="8.67741" gradientUnits="userSpaceOnUse">
<stop offset="0.0108" stop-color="#050223" stop-opacity="0"/>
<stop offset="1" stop-color="#0CF9FF"/>
</linearGradient>
<linearGradient id="paint2_linear_64_1432" x1="9.31568" y1="58.2542" x2="35.7771" y2="14.7652" gradientUnits="userSpaceOnUse">
<stop offset="0.0108" stop-color="#050223" stop-opacity="0"/>
<stop offset="1" stop-color="#0CF9FF"/>
</linearGradient>
</defs>
</svg>
