<svg width="629" height="30" viewBox="0 0 629 30" fill="none" xmlns="http://www.w3.org/2000/svg">
<path fill-rule="evenodd" clip-rule="evenodd" d="M0 -8.9407e-07L17.2975 0.999999C35.1192 2 69.7142 4 104.833 7C139.952 10 174.547 14 209.667 14C244.786 14 279.381 10 314.5 7.5C349.619 5 384.214 4 419.333 5C454.452 6 489.047 9 524.167 9.5C559.286 10 593.881 8 611.702 7L629 6V30H611.702C593.881 30 559.286 30 524.167 30C489.047 30 454.452 30 419.333 30C384.214 30 349.619 30 314.5 30C279.381 30 244.786 30 209.667 30C174.547 30 139.952 30 104.833 30C69.7142 30 35.1192 30 17.2975 30H0V-8.9407e-07Z" fill="white"/>
</svg>
